<svg width="34" height="43" viewBox="0 0 34 43" fill="none" xmlns="http://www.w3.org/2000/svg">
<path fill-rule="evenodd" clip-rule="evenodd" d="M18.5777 38.5946L13 43L15.4689 38.5946L26.8535 18.3426L17.9031 18.3749L21.2039 5C25.0829 5.98788 28.4903 8.32853 30.8227 11.6075C33.1551 14.8865 34.2621 18.8922 33.9475 22.9155C33.633 26.9387 31.9174 30.7199 29.1043 33.5896C26.2912 36.4593 22.5623 38.2322 18.5777 38.5946Z" fill="#FF3333"/>
<path fill-rule="evenodd" clip-rule="evenodd" d="M18.5083 4.4136L7.20689 24.4067H16.213L12.7553 38C8.88323 36.9821 5.49087 34.6379 3.16922 31.3757C0.847572 28.1134 -0.256205 24.14 0.0501734 20.1475C0.356552 16.155 2.05367 12.3965 4.84587 9.52687C7.63807 6.65718 11.3484 4.85816 15.3305 4.4432L21 0L18.5083 4.4136Z" fill="#FF3333"/>
</svg>
