<svg width="86" height="41" viewBox="0 0 86 41" fill="none" xmlns="http://www.w3.org/2000/svg">
<path fill-rule="evenodd" clip-rule="evenodd" d="M21.8295 7.73315C22.6285 8.98827 23.3891 10.1806 23.9865 11.1156V21.6462L18.9857 26.647C21.4955 35.7184 29.2915 40.2385 37.6231 40.2385C42.7186 40.2385 46.9082 37.6533 48.2104 33.7756V39.7889H55.7404V24.6151C55.7404 21.187 53.0228 18.2647 49.3427 18.2647H38.5856V24.6151H46.2288C47.1913 24.6151 47.8141 25.2333 47.8141 26.1887C47.8141 29.8416 42.9451 33.3822 38.0194 33.3822C31.4519 33.3822 26.2432 28.2681 26.2432 20.1192C26.2432 11.9704 31.4519 7.24966 38.1893 7.24966C43.2848 7.24966 46.795 10.0034 47.4178 14.2183H55.8536C55.3441 5.78849 48.2104 0 38.2459 0C31.7488 0 25.5785 2.57325 21.8295 7.73315ZM74.2805 39.7889H65.788V7.69926H54.0684V0.449589H86.0001V7.69926H74.2805V39.7889Z" fill="black"/>
<path fill-rule="evenodd" clip-rule="evenodd" d="M15.171 0.847245C14.5707 0.808361 13.9648 0.789001 13.3547 0.789001H0V14.7744L15.171 0.847245ZM0 22.0168V40.2385H1.27695L8.14447 22.0168H0ZM1.62903 40.2385L22.0924 15.379H10.3419L15.214 0.850064C25.3855 1.52503 33.9265 7.81176 33.9265 20.5137C33.9265 33.9266 24.3225 40.2385 13.3547 40.2385H1.62903Z" fill="#FF3333"/>
</svg>
