<svg width="48" height="48" viewBox="0 0 48 48" fill="none" xmlns="http://www.w3.org/2000/svg">
<circle cx="24" cy="24" r="24" fill="#FDE5E5"/>
<path d="M23.5 27C25.433 27 27 25.433 27 23.5C27 21.567 25.433 20 23.5 20C21.567 20 20 21.567 20 23.5C20 25.433 21.567 27 23.5 27Z" fill="#FF3333"/>
<path d="M32.9113 20H32.9104C31.7575 20 30.8217 20.9314 30.8217 22.08V24.122C30.8217 28.1458 27.5437 31.4097 23.5004 31.4097C19.4569 31.4097 16.1782 28.1457 16.1782 24.122V22.08C16.1782 20.9305 15.2415 20 14.0887 20C12.9357 20 12 20.9314 12 22.08V24.084C12 27.8163 13.7945 31.1312 16.571 33.2207C16.732 33.3418 16.8265 33.531 16.8265 33.7318V39.3579C16.8265 39.7125 17.1153 40 17.4716 40H29.4104C29.7667 40 30.0555 39.7125 30.0555 39.3579V33.789C30.0555 33.5869 30.1512 33.3967 30.3139 33.2758C33.1598 31.1605 35 27.7594 35 23.9604V22.0799C34.9999 20.9314 34.0643 20 32.9113 20Z" fill="#FF3333"/>
<path d="M20.6074 14.2905C20.7182 14.4309 20.7746 14.6096 20.7656 14.7913L20.6445 17.2328C20.6182 17.7631 21.1266 18.1438 21.5993 17.9476L23.7422 17.0584C23.9078 16.9897 24.0923 16.9897 24.2579 17.0584L26.4008 17.9476C26.8735 18.1438 27.3819 17.7631 27.3556 17.2328L27.2344 14.7913C27.2254 14.6096 27.2818 14.4309 27.3926 14.2905L28.8404 12.4545C29.1608 12.0483 28.9757 11.4322 28.4904 11.2898L26.241 10.63C26.0793 10.5826 25.9395 10.4759 25.847 10.3296L24.5827 8.32759C24.3069 7.8908 23.6931 7.8908 23.4172 8.32759L22.153 10.3296C22.0606 10.476 21.9207 10.5827 21.759 10.6301L19.5096 11.2899C19.0243 11.4322 18.8392 12.0483 19.1596 12.4546L20.6074 14.2905Z" fill="#FF8686"/>
<path d="M17.7051 16.7051C18.0983 16.312 18.0983 15.6745 17.7051 15.2813L13.7187 11.2949C13.3256 10.9017 12.6881 10.9017 12.2949 11.2949C11.9017 11.688 11.9017 12.3255 12.2949 12.7187L16.2813 16.7051C16.6744 17.0983 17.3119 17.0983 17.7051 16.7051Z" fill="#FF3333"/>
<path d="M35.7051 11.2949C35.312 10.9017 34.6744 10.9017 34.2812 11.2949L30.2949 15.2812C29.9017 15.6744 29.9017 16.3119 30.2949 16.7051C30.6881 17.0983 31.3255 17.0983 31.7187 16.7051L35.7051 12.7187C36.0983 12.3256 36.0983 11.6881 35.7051 11.2949Z" fill="#FF3333"/>
</svg>
