<svg width="12" height="12" viewBox="0 0 12 12" fill="none"
    xmlns="http://www.w3.org/2000/svg">
    <g clip-path="url(#clip0_212_12462)">
        <path d="M7.95459 6.06198L12.0001 8.61948V3.39648L7.95459 6.06198Z" fill="white"/>
        <path d="M0 3.39648V8.61948L4.0455 6.06198L0 3.39648Z" fill="white"/>
        <path d="M11.25 1.875H0.749961C0.375711 1.875 0.0787109 2.154 0.0224609 2.51325L5.99996 6.4515L11.9775 2.51325C11.9212 2.154 11.6242 1.875 11.25 1.875Z" fill="white"/>
        <path d="M7.26755 6.51448L6.2063 7.21348C6.1433 7.25473 6.07205 7.27498 6.00005 7.27498C5.92805 7.27498 5.8568 7.25473 5.7938 7.21348L4.73255 6.51373L0.0240479 9.49198C0.0817979 9.84823 0.377298 10.125 0.750048 10.125H11.25C11.6228 10.125 11.9183 9.84823 11.976 9.49198L7.26755 6.51448Z" fill="white"/>
    </g>
    <defs>
        <clipPath id="clip0_212_12462">
            <rect width="12" height="12" fill="white"/>
        </clipPath>
    </defs>
</svg>
