<svg width="25" height="25" viewBox="0 0 25 25" fill="none" xmlns="http://www.w3.org/2000/svg">
<path d="M7.10242 13.393L9.71146 16.234L16.2341 9.13159" stroke="#FF3333" stroke-width="1.01463" stroke-linecap="round" stroke-linejoin="round"/>
<path d="M12.1755 23.3364C6.01153 23.3364 1.01463 18.3395 1.01463 12.1755H-1.01463C-1.01463 19.4602 4.89081 25.3657 12.1755 25.3657V23.3364ZM23.3364 12.1755C23.3364 18.3395 18.3395 23.3364 12.1755 23.3364V25.3657C19.4602 25.3657 25.3657 19.4602 25.3657 12.1755H23.3364ZM12.1755 1.01463C18.3395 1.01463 23.3364 6.01153 23.3364 12.1755H25.3657C25.3657 4.89081 19.4602 -1.01463 12.1755 -1.01463V1.01463ZM12.1755 -1.01463C4.89081 -1.01463 -1.01463 4.89081 -1.01463 12.1755H1.01463C1.01463 6.01153 6.01153 1.01463 12.1755 1.01463V-1.01463Z" fill="#FF3333"/>
</svg>
