<svg width="48" height="48" viewBox="0 0 48 48" fill="none" xmlns="http://www.w3.org/2000/svg">
<circle cx="24" cy="24" r="24" fill="#FDE5E5"/>
<path d="M18.5006 9C12.7113 9 8.00122 13.7104 8.00122 19.5C8.00122 21.9837 8.85772 24.3364 10.4314 26.2194L8.28057 28.3703C7.67988 28.9716 8.10812 30 8.95571 30H18.5006C24.2899 30 29 25.2896 29 19.5C29 13.7104 24.2899 9 18.5006 9ZM18.5006 24.2727C15.8688 24.2727 13.7282 22.132 13.7282 19.5C13.7282 18.9731 14.1558 18.5455 14.6827 18.5455C15.2095 18.5455 15.6371 18.9731 15.6371 19.5C15.6371 21.0788 16.9219 22.3636 18.5006 22.3636C20.0793 22.3636 21.3641 21.0788 21.3641 19.5C21.3641 18.9731 21.7917 18.5455 22.3186 18.5455C22.8454 18.5455 23.2731 18.9731 23.2731 19.5C23.2731 22.132 21.1325 24.2727 18.5006 24.2727Z" fill="#FF3333"/>
<path d="M39.728 37.3679L37.6426 35.214C39.1684 33.3283 39.9988 30.9723 39.9988 28.485C39.9988 22.9541 35.8428 18.4066 30.5874 18C30.6096 18.3059 30.6207 18.6143 30.6207 18.926C30.6207 25.2853 25.9718 30.544 20 31.268C21.1846 35.72 25.1376 39 29.8186 39H39.0733C39.8952 39 40.3104 37.9702 39.728 37.3679ZM33.5218 33.3283C33.0109 33.3283 32.5963 32.9 32.5963 32.3724C32.5963 30.7913 31.3506 29.5047 29.8199 29.5047C28.2891 29.5047 27.0435 30.7913 27.0435 32.3724C27.0435 32.9 26.6288 33.3283 26.118 33.3283C25.6071 33.3283 25.1925 32.9 25.1925 32.3724C25.1925 29.7366 27.268 27.5928 29.8199 27.5928C32.3717 27.5928 34.4472 29.7366 34.4472 32.3724C34.4472 32.9 34.0326 33.3283 33.5218 33.3283Z" fill="#FF8686"/>
</svg>
