<svg width="48" height="48" viewBox="0 0 48 48" fill="none" xmlns="http://www.w3.org/2000/svg">
<circle cx="24" cy="24" r="24" fill="#FDE5E5"/>
<path d="M19.8993 13V10.0095H29.1007V13H31V9.00474C31 8.44986 30.5748 8 30.0503 8H18.9497C18.4252 8 18 8.44986 18 9.00474V13H19.8993Z" fill="#FF8686"/>
<path d="M38.5791 24.3346C38.0817 25.1517 37.2273 25.6396 36.2935 25.6396H31.5459C31.3389 26.2215 30.9885 26.6638 30.7466 26.9689C30.6893 27.0411 30.6089 27.1426 30.563 27.2076C30.5488 27.2924 30.5341 27.4368 30.5237 27.5389C30.4732 28.0357 30.4016 28.7367 30 29.3805V36H39.0999C39.597 36 40 35.5833 40 35.0692V22L38.5791 24.3346Z" fill="#FF3333"/>
<path d="M18 29.3722C17.5984 28.7275 17.5268 28.0256 17.4762 27.5282C17.4659 27.4259 17.4511 27.2815 17.437 27.1965C17.3911 27.1315 17.3107 27.0299 17.2534 26.9577C17.0115 26.6522 16.6611 26.2093 16.4541 25.6268H11.6862C10.749 25.6268 9.89295 25.1356 9.39625 24.3128L8 22V35.0681C8 35.5828 8.40303 36 8.90015 36H18V29.3722Z" fill="#FF3333"/>
<path d="M39.0625 15H8.9375C8.41975 15 8 15.4201 8 15.9382V18.6847L11.0441 23.559C11.2154 23.8333 11.5159 23.9999 11.8391 23.9999H16.7709C16.9802 23.3649 17.3716 22.8868 17.6374 22.5623C17.6971 22.4895 17.7809 22.3873 17.8287 22.3218C17.8434 22.2363 17.8588 22.0908 17.8696 21.9878C17.935 21.3652 18.0339 20.4241 18.7859 19.6714C19.5382 18.9186 20.4786 18.8196 21.1008 18.7541C21.2036 18.7433 21.3491 18.728 21.4345 18.7132C21.5 18.6654 21.6022 18.5815 21.6749 18.5218C22.1361 18.1434 22.9079 17.51 24.0001 17.51C25.0922 17.51 25.8641 18.1434 26.3252 18.5218C26.3979 18.5815 26.5002 18.6654 26.5656 18.7132C26.6511 18.728 26.7965 18.7433 26.8994 18.7541C27.5216 18.8196 28.4619 18.9186 29.2141 19.6714C29.9663 20.4242 30.0652 21.3653 30.1306 21.9881C30.1414 22.091 30.1568 22.2365 30.1714 22.3219C30.2193 22.3874 30.3031 22.4896 30.3627 22.5625C30.6285 22.8868 31.0199 23.3651 31.2292 24H36.1399C36.4621 24 36.7617 23.8344 36.9333 23.5615L40 18.6846V15.9382C40 15.42 39.5802 15 39.0625 15Z" fill="#FF3333"/>
<path d="M27.1227 30.1267C27.0114 30.138 26.8541 30.154 26.7616 30.1694C26.6908 30.2194 26.5802 30.307 26.5015 30.3693C26.1598 30.6399 25.6604 31.0353 25 31.2578V39.1325L26.7789 39.9229C27.3495 40.1764 28 39.7738 28 39.1672V30C27.6783 30.0702 27.3761 30.101 27.1227 30.1267Z" fill="#FF8686"/>
<path d="M24 31.2578C23.3396 31.0354 22.8402 30.6399 22.4986 30.3693C22.4199 30.3069 22.3092 30.2193 22.2384 30.1694C22.146 30.154 21.9886 30.138 21.8773 30.1267C21.6239 30.1009 21.3218 30.0702 21 30V39.1672C21 39.7738 21.6506 40.1764 22.221 39.9229L24 39.1325V31.2578Z" fill="#FF8686"/>
<path d="M30 24.5C30 25.1983 29.1884 25.7303 28.9366 26.3375C28.6756 26.9671 28.8635 27.9147 28.3891 28.3891C27.9147 28.8635 26.967 28.6756 26.3375 28.9366C25.7303 29.1884 25.1983 30 24.5 30C23.8017 30 23.2697 29.1884 22.6625 28.9366C22.033 28.6756 21.0853 28.8635 20.6109 28.3891C20.1365 27.9147 20.3244 26.967 20.0634 26.3375C19.8116 25.7303 19 25.1983 19 24.5C19 23.8017 19.8116 23.2697 20.0634 22.6625C20.3244 22.033 20.1365 21.0853 20.6109 20.6109C21.0853 20.1365 22.033 20.3244 22.6625 20.0634C23.2697 19.8116 23.8017 19 24.5 19C25.1983 19 25.7303 19.8116 26.3375 20.0634C26.967 20.3244 27.9147 20.1365 28.3891 20.6109C28.8635 21.0853 28.6756 22.033 28.9366 22.6625C29.1884 23.2697 30 23.8017 30 24.5Z" fill="#FF8686"/>
</svg>
