<svg width="240" height="240" viewBox="0 0 240 240" fill="none" xmlns="http://www.w3.org/2000/svg">
<path fill-rule="evenodd" clip-rule="evenodd" d="M170.474 157.966C161.06 157.966 153.529 150.426 153.529 141.001V101.885V99.0571C153.529 89.6316 145.997 82.0912 136.583 82.0912C127.169 82.0912 121.286 89.6316 121.286 99.0571V102.592V141.001C121.286 150.426 112.107 157.966 102.693 157.966C93.279 157.966 85.7477 150.426 85.7477 141.001V131.339V102.12C85.5124 102.12 85.5124 101.885 85.2771 101.885V99.0571C85.2771 89.6316 79.1579 82.0912 69.7439 82.0912C60.3299 82.0912 52.7987 89.6316 52.7987 99.0571V102.592C52.7987 102.592 53.2694 142.179 55.3876 153.489C57.5057 164.564 64.0955 171.633 72.5681 180.588C81.2761 189.778 68.0965 210.749 50.6806 198.967C33.0293 187.421 24.3214 172.576 21.2618 153.489C18.4376 133.931 16.7902 99.5284 16.7902 99.5284C16.7902 99.5284 17.4962 87.2752 19.1437 84.4476C25.4981 63.4758 44.7968 48.395 67.8611 48.395C81.0407 48.395 93.0436 53.3434 102.222 61.5907C111.166 53.3434 123.404 48.395 136.583 48.395C159.412 48.395 178.946 63.4758 185.301 84.4476C186.948 87.2752 187.654 99.5284 187.654 99.5284V131.575V141.236C187.419 150.426 179.652 157.966 170.474 157.966Z" fill="#4D525D"/>
<path fill-rule="evenodd" clip-rule="evenodd" d="M69.7616 80.9761C79.1756 80.9761 86.7068 88.5051 86.7068 97.9163V136.973V139.796C86.7068 149.208 94.238 156.737 103.652 156.737C113.066 156.737 120.597 149.208 120.597 139.796V136.267V97.9163C120.597 88.5051 128.128 80.9761 137.542 80.9761C146.956 80.9761 154.488 88.5051 154.488 97.9163V107.563V136.973C154.723 136.973 154.723 137.208 154.958 137.208V140.032C154.958 149.443 161.077 156.972 170.491 156.972C179.905 156.972 187.437 149.443 187.437 140.032V136.502C187.437 136.502 186.966 96.9752 184.848 85.6817C182.73 74.6235 176.14 67.5651 167.667 58.6244C159.43 49.2132 172.61 28.2732 189.79 40.0372C206.971 51.8013 215.914 66.3887 218.738 85.6817C221.798 105.21 223.21 139.561 223.21 139.561C223.21 139.561 222.504 151.796 220.856 154.619C214.502 175.324 194.968 190.617 172.139 190.617C158.959 190.617 146.956 185.676 137.778 177.441C128.835 185.676 116.596 190.617 103.417 190.617C80.5877 190.617 61.0537 175.559 54.6992 154.619C53.0518 151.796 52.3457 139.561 52.3457 139.561V107.563V97.9163C52.8164 88.5051 60.3476 80.9761 69.7616 80.9761Z" fill="#FCD600"/>
</svg>
