<svg width="24" height="24" viewBox="0 0 24 24" fill="none"
    xmlns="http://www.w3.org/2000/svg">
    <path d="M4.84513 15.9536C7.2123 18.7833 10.0619 21.0112 13.3143 22.5877C14.5525 23.1745 16.2086 23.8707 18.0536 23.9901C18.168 23.995 18.2774 24 18.3917 24C19.63 24 20.6247 23.5723 21.4353 22.6921C21.4402 22.6871 21.4502 22.6772 21.4552 22.6672C21.7436 22.3191 22.0718 22.0058 22.415 21.6726C22.6487 21.4488 22.8874 21.2151 23.1162 20.9764C24.1754 19.8724 24.1754 18.47 23.1062 17.4007L20.1174 14.4119C19.6101 13.8848 19.0034 13.6063 18.3669 13.6063C17.7303 13.6063 17.1186 13.8848 16.5965 14.407L14.8161 16.1873C14.652 16.0928 14.4829 16.0083 14.3238 15.9287C14.1249 15.8293 13.9409 15.7348 13.7767 15.6303C12.1555 14.6009 10.6835 13.2582 9.27612 11.5325C8.56498 10.6324 8.08756 9.8765 7.75437 9.10568C8.22184 8.68297 8.65946 8.24037 9.08218 7.80771C9.23137 7.65354 9.38553 7.49938 9.5397 7.34521C10.0768 6.80812 10.3652 6.18649 10.3652 5.55491C10.3652 4.92333 10.0818 4.3017 9.5397 3.76461L8.05772 2.28264C7.88367 2.10858 7.71956 1.93949 7.55047 1.76544C7.22225 1.42727 6.87911 1.07915 6.54094 0.765852C6.02871 0.263572 5.42697 0 4.79042 0C4.15884 0 3.55213 0.263572 3.02001 0.770825L1.16009 2.63075C0.483749 3.30709 0.100823 4.12764 0.0212544 5.0775C-0.0732338 6.26606 0.145581 7.52922 0.71251 9.05595C1.5828 11.4182 2.89568 13.6113 4.84513 15.9536ZM1.23468 5.18193C1.29436 4.52051 1.54798 3.9685 2.0254 3.49109L3.87538 1.64111C4.16382 1.36262 4.48209 1.2184 4.79042 1.2184C5.09378 1.2184 5.40211 1.36262 5.68557 1.65106C6.01877 1.95939 6.33207 2.28264 6.67024 2.62578C6.83932 2.79983 7.01338 2.97389 7.18744 3.15292L8.66941 4.63489C8.97774 4.94322 9.13688 5.25653 9.13688 5.56486C9.13688 5.87319 8.97774 6.18649 8.66941 6.49482C8.51525 6.64898 8.36108 6.80812 8.20692 6.96229C7.74442 7.42976 7.31177 7.87236 6.83435 8.29507C6.8244 8.30501 6.81943 8.30999 6.80949 8.31993C6.39672 8.7327 6.46137 9.12557 6.56083 9.42395C6.56581 9.43887 6.57078 9.44882 6.57575 9.46374C6.95868 10.3838 7.4908 11.259 8.3213 12.3034C9.81322 14.1434 11.3847 15.5707 13.1153 16.6697C13.3292 16.809 13.5579 16.9184 13.7718 17.0278C13.9707 17.1272 14.1547 17.2217 14.3188 17.3261C14.3387 17.3361 14.3536 17.346 14.3735 17.356C14.5376 17.4405 14.6968 17.4803 14.8559 17.4803C15.2537 17.4803 15.5123 17.2267 15.5969 17.1421L17.4568 15.2822C17.7452 14.9938 18.0586 14.8396 18.3669 14.8396C18.7448 14.8396 19.0532 15.0734 19.2471 15.2822L22.2459 18.276C22.8426 18.8728 22.8377 19.5193 22.231 20.1509C22.0221 20.3746 21.8033 20.5885 21.5695 20.8123C21.2214 21.1504 20.8584 21.4986 20.5302 21.8914C19.9583 22.5081 19.277 22.7965 18.3967 22.7965C18.3122 22.7965 18.2227 22.7915 18.1381 22.7866C16.507 22.6821 14.9902 22.0456 13.8513 21.5035C10.7581 20.0066 8.0428 17.8831 5.79001 15.1877C3.93506 12.9548 2.68682 10.8761 1.86129 8.64816C1.34906 7.28056 1.15511 6.18152 1.23468 5.18193Z" fill="white"/>
</svg>
