<svg width="48" height="48" viewBox="0 0 48 48" fill="none" xmlns="http://www.w3.org/2000/svg">
<circle cx="24" cy="24" r="24" fill="#FDE5E5"/>
<path d="M39.6428 8.19276C39.3214 7.94383 38.8747 7.93518 38.544 8.17158L34.1135 11.3363L31.8196 10.1896C31.5873 10.0735 31.3169 10.0609 31.0748 10.1547C30.8328 10.2487 30.6415 10.4404 30.5484 10.6827L27.0615 19.7486C26.9155 20.1281 27.0357 20.5584 27.3572 20.8072C27.6786 21.0562 28.1253 21.0648 28.456 20.8284L32.8865 17.6637L35.1803 18.8108C35.4124 18.927 35.683 18.9396 35.9251 18.8458C36.1671 18.7519 36.3583 18.5601 36.4515 18.3178L39.9385 9.25137C40.0845 8.87188 39.9643 8.44162 39.6428 8.19276Z" fill="#FF3333"/>
<path d="M29.1435 24.27C28.7834 23.91 28.1997 23.91 27.8396 24.27L25.0002 27.1095L25 27.1097L31.8903 34L31.8905 33.9998L34.73 31.1603C35.09 30.8003 35.09 30.2166 34.73 29.8565L29.1435 24.27Z" fill="#FF3333"/>
<path d="M20.8905 21.9998L23.73 19.1603C24.09 18.8003 24.09 18.2166 23.73 17.8565L18.1435 12.27C17.7834 11.91 17.1997 11.91 16.8397 12.27L14.0002 15.1095L14 15.1097L20.8904 22L20.8905 21.9998Z" fill="#FF3333"/>
<path d="M23.1671 29.1697C20.1866 31.9369 16.0644 27.8104 18.8304 24.8329L19.6852 23.9782L12.7071 17L11.8523 17.8547C0.179656 30.4274 17.5863 47.816 30.1453 36.1479L31 35.2931L24.0218 28.3149L23.1671 29.1697Z" fill="#FF3333"/>
</svg>
