<svg width="48" height="48" viewBox="0 0 48 48" fill="none" xmlns="http://www.w3.org/2000/svg">
<circle cx="24" cy="24" r="24" fill="#FDE5E5"/>
<path d="M25 15.052C28.2787 15.052 30.9467 17.72 30.9467 21C30.9467 21.552 31.3947 22 31.9467 22H37C37.552 22 38 21.552 38 21C38 13.832 32.168 8 25 8C24.448 8 24 8.448 24 9V14.052C24 14.604 24.448 15.052 25 15.052Z" fill="#FF3333"/>
<path d="M27.0435 29.8983C26.6538 29.5028 26.022 29.5028 25.6323 29.8983C24.4765 31.0714 22.9376 31.7181 21.3004 31.7181C17.9234 31.7181 15.1756 28.929 15.1756 25.5014C15.1756 22.0737 17.9234 19.2846 21.3004 19.2846C21.851 19.2846 22.2979 18.831 22.2979 18.2721V13.0125C22.2979 12.4536 21.851 12 21.3004 12C13.9665 12 8 18.0561 8 25.5C8 32.9439 13.9665 39 21.3004 39C24.8569 39 28.1993 37.5974 30.7077 35.0485C31.0974 34.653 31.0974 34.0117 30.7077 33.6162L27.0435 29.8983Z" fill="#FF8686"/>
<path d="M38.979 24H34.0182C33.4545 24 32.9971 24.4409 32.9971 24.9841C32.9971 26.48 32.394 27.8827 31.2995 28.9377C31.1075 29.1227 31 29.372 31 29.6331C31 29.8942 31.1075 30.1449 31.2995 30.3286L34.8091 33.7113C35.0011 33.8963 35.2611 34 35.5306 34C35.8002 34 36.0616 33.8963 36.2522 33.7113C38.6699 31.3822 40 28.2816 40 24.9841C40 24.4409 39.5426 24 38.979 24Z" fill="#FF3333"/>
</svg>
