<svg width="48" height="48" viewBox="0 0 48 48" fill="none" xmlns="http://www.w3.org/2000/svg">
<circle cx="24" cy="24" r="24" fill="#FDE5E5"/>
<path d="M38.3704 26.9318L39.4137 26.5535C39.9086 26.3741 40.1343 25.8961 39.9177 25.486C39.7012 25.0758 39.1244 24.8886 38.6296 25.0682L37.5863 25.4465C37.0914 25.6259 36.8657 26.1039 37.0823 26.5141C37.299 26.9245 37.876 27.1112 38.3704 26.9318Z" fill="#FF3333"/>
<path d="M39.4137 32.4465L38.3704 32.0682C37.8755 31.8887 37.2988 32.0757 37.0823 32.4859C36.8657 32.8961 37.0914 33.3741 37.5863 33.5535L38.6296 33.9318C39.1245 34.1113 39.7013 33.9242 39.9177 33.5141C40.1343 33.1039 39.9086 32.6259 39.4137 32.4465Z" fill="#FF3333"/>
<path d="M39.0217 29H37.9783C37.438 29 37 29.4477 37 30C37 30.5523 37.438 31 37.9783 31H39.0217C39.562 31 40 30.5523 40 30C40 29.4477 39.562 29 39.0217 29Z" fill="#FF3333"/>
<path d="M25.8679 24.3535C33.3244 20.5529 32.8256 20.8005 33 20.7334V11.855C33 10.2809 31.7537 9 30.2222 9H10.7778C9.2463 9 8 10.2809 8 11.855V27.145C8 28.7191 9.2463 30 10.7778 30H17.321V28.4773C17.321 26.2035 19.121 24.3535 21.3333 24.3535H25.8679ZM17.2104 24.1578C16.596 24.4736 15.8704 24.0133 15.8704 23.3066V15.6933C15.8704 14.986 16.5961 14.5264 17.2104 14.8421L24.6178 18.6487C25.2994 18.999 25.2988 20.0011 24.6178 20.3511L17.2104 24.1578Z" fill="#FF8686"/>
<path d="M18 21L22 19L18 17V21Z" fill="#FF8686"/>
<path d="M21.0417 26.1371C19.9159 26.1371 19 27.0989 19 28.2809V31.3435C19 32.3664 19.686 33.2237 20.6002 33.4363L19.8869 37.9302C19.798 38.49 20.2098 39 20.75 39H24.25C24.6741 39 25.0373 38.6806 25.1115 38.242L25.9019 33.5734L26 33.6245V26L25.7366 26.1371H21.0417Z" fill="#FF3333"/>
<path d="M34.5557 22.0985L29 24.681V34.3192L34.5557 36.9016C35.218 37.2095 36 36.7575 36 36.0618V22.9384C36 22.2432 35.2191 21.7901 34.5557 22.0985Z" fill="#FF3333"/>
</svg>
