<svg width="15" height="15" viewBox="0 0 15 15" fill="none" xmlns="http://www.w3.org/2000/svg">
<path d="M1.46243 6.70189C5.22052 4.72618 7.7265 3.42367 8.98037 2.79437C12.5604 0.997566 13.3043 0.685443 13.7892 0.675027C13.8958 0.67287 14.1343 0.70476 14.2887 0.855989C14.4192 0.983684 14.455 1.15618 14.4722 1.27725C14.4894 1.39832 14.5108 1.67412 14.4938 1.88962C14.2998 4.3493 13.4603 10.3183 13.0332 13.0732C12.8525 14.2389 12.4967 14.6297 12.1522 14.668C11.4036 14.7511 10.8351 14.071 10.1101 13.4975C8.97546 12.6 8.33448 12.0414 7.23315 11.1656C5.96037 10.1535 6.78546 9.59729 7.51081 8.68821C7.70064 8.4503 10.9991 4.83009 11.0629 4.50168C11.0709 4.4606 11.0783 4.3075 11.003 4.22666C10.9276 4.14582 10.8163 4.17346 10.736 4.19545C10.6222 4.22661 8.8097 5.67222 5.2984 8.53228C4.78392 8.95857 4.31791 9.16627 3.90039 9.15539C3.4401 9.14339 2.55469 8.84135 1.89648 8.58318C1.08916 8.26652 0.447519 8.0991 0.503392 7.56131C0.532494 7.28119 0.852172 6.99472 1.46243 6.70189Z" fill="white"/>
</svg>
