<svg width="44" height="44" viewBox="0 0 44 44" fill="none" xmlns="http://www.w3.org/2000/svg">
<path fill-rule="evenodd" clip-rule="evenodd" d="M22.0921 43.6219H22.083C18.4165 43.6206 14.8137 42.7051 11.6138 40.968L0 44L3.10804 32.7018C1.19085 29.3952 0.182033 25.6445 0.183678 21.8018C0.188483 9.78036 10.0164 0 22.0919 0C27.9526 0.00251731 33.4532 2.27313 37.5894 6.39438C41.7256 10.5154 44.0023 15.9933 44 21.819C43.9951 33.8376 34.1711 43.617 22.0921 43.6219ZM12.1258 37.2474L12.7863 37.6412C15.5636 39.2964 18.7471 40.1722 21.993 40.1735H22.0004C31.9704 40.1735 40.0849 32.0235 40.0889 22.0062C40.0908 17.1518 38.2111 12.5874 34.7959 9.15342C31.3807 5.71942 26.839 3.82735 22.0075 3.82567C12.0298 3.82567 3.91509 11.9748 3.91113 21.9914C3.90973 25.4242 4.86607 28.7673 6.67679 31.6598L7.10688 32.3471L5.27951 39.0511L12.1258 37.2474ZM33.1637 26.4C33.0254 26.178 32.6566 26.0447 32.1033 25.7782C31.55 25.5117 28.8297 24.224 28.3224 24.0462C27.8153 23.8686 27.4463 23.7799 27.0775 24.3127C26.7087 24.8455 25.6483 26.0447 25.3255 26.4C25.0027 26.7552 24.6799 26.7998 24.1268 26.5332C23.5735 26.2668 21.7906 25.7047 19.6772 23.891C18.0323 22.4794 16.9218 20.7362 16.599 20.2032C16.2763 19.6702 16.5646 19.3822 16.8416 19.1168C17.0906 18.8782 17.395 18.4948 17.6716 18.1841C17.9483 17.8733 18.0405 17.6511 18.2249 17.2961C18.4093 16.9406 18.3171 16.6299 18.1788 16.3634C18.0405 16.0969 16.9339 13.4766 16.4728 12.4106C16.0237 11.3726 15.5675 11.5132 15.2279 11.4968C14.9055 11.4812 14.5362 11.4779 14.1674 11.4779C13.7986 11.4779 13.1991 11.6112 12.6919 12.1441C12.1848 12.6771 10.7554 13.965 10.7554 16.5852C10.7554 19.2055 12.738 21.7369 13.0147 22.0921C13.2913 22.4476 16.9163 27.8245 22.4669 30.1304C23.787 30.6789 24.8176 31.0065 25.6212 31.2518C26.9467 31.6571 28.153 31.5999 29.1062 31.4627C30.1694 31.31 32.3799 30.175 32.8411 28.9316C33.302 27.6879 33.302 26.622 33.1637 26.4Z" fill="#FDFDFD"/>
</svg>
