<svg width="144" height="38" viewBox="0 0 144 38" fill="none" xmlns="http://www.w3.org/2000/svg">
<path d="M68.7618 7.05099H68.4294C65.8882 7.05099 63.3363 7.05099 60.7951 7.04023C60.1947 7.04023 59.7336 6.56657 59.7229 5.95297C59.7122 4.33824 59.7229 2.72351 59.7229 1.11955C59.7229 0.516714 60.1732 0.0430595 60.7737 0H75.4739C75.8921 0 76.2566 0.118414 76.4925 0.473654C76.5998 0.645892 76.6426 0.86119 76.707 1.06572C76.7284 1.11955 76.707 1.1949 76.707 1.24873V36.6974C76.707 37.3433 76.3853 37.7955 75.8277 37.9139C75.7205 37.9354 75.6026 37.9354 75.4846 37.9354H60.9345C60.1625 37.9354 59.7122 37.4833 59.7122 36.719V32.1009C59.7122 31.3473 60.1518 30.8952 60.9024 30.8952H68.7511C68.7618 22.9507 68.7618 15.017 68.7618 7.05099V7.05099ZM35.8766 7.05099V30.8952H36.209C38.6858 30.8952 41.1519 30.9167 43.6288 30.8844C44.5295 30.8737 44.9691 31.4873 44.9476 32.2085C44.9262 33.7048 44.9476 35.2011 44.9369 36.6974C44.9369 37.3433 44.6045 37.7955 44.0577 37.9139C43.9505 37.9354 43.8325 37.9462 43.7146 37.9462H29.1645C28.3817 37.9462 27.9314 37.5048 27.9314 36.719V1.24873C27.9314 0.452125 28.3817 0 29.1645 0H43.7146C44.4758 0 44.9369 0.452125 44.9476 1.21643C44.9584 2.76657 44.9476 4.31671 44.9476 5.86686C44.9476 6.59887 44.3579 7.06176 43.8003 7.05099C41.2699 7.02946 38.7502 7.05099 36.2197 7.05099H35.8766V7.05099Z" fill="#2A2A2A"/>
<path d="M57.5464 19.7751V24.3394C57.5464 24.8453 57.3962 24.9853 56.8923 24.9853H53.8901C53.4826 24.9853 53.3004 24.8023 53.3004 24.3932V13.2408C53.3004 12.8102 53.4719 12.638 53.9008 12.638H56.5278C56.8923 12.638 57.1711 12.7672 57.3963 13.0793C58.5757 14.7156 59.7551 16.3411 60.9346 17.9666C60.9882 18.0419 61.0418 18.1065 61.1383 18.2357C61.149 18.085 61.149 17.9881 61.149 17.902V13.3377C61.149 12.7995 61.2992 12.6487 61.8353 12.6487H64.7303C65.245 12.6487 65.4165 12.821 65.4165 13.3485V24.3071C65.4165 24.8346 65.2557 24.9961 64.7303 24.9961C63.8939 24.9961 63.0469 24.9853 62.2105 24.9961C61.8245 25.0068 61.5458 24.8561 61.3206 24.5547C60.109 23.0046 58.8974 21.4544 57.6858 19.915C57.6536 19.872 57.6214 19.8504 57.5464 19.7751V19.7751ZM42.621 16.2765H39.5973C39.1041 16.2765 38.9432 16.115 38.9432 15.6091V13.2408C38.9432 12.8102 39.1255 12.6272 39.5437 12.6272H50.5018C50.9093 12.6272 51.0808 12.8102 51.0916 13.2193V15.6629C51.0916 16.0935 50.9093 16.2657 50.4804 16.2657H47.4353V21.336H50.2338C50.3625 21.336 50.4804 21.3468 50.6091 21.3575C50.9307 21.3898 51.0808 21.5298 51.0916 21.8419C51.1023 22.7139 51.1023 23.5751 51.0916 24.447C51.0916 24.8023 50.8878 24.9638 50.4911 24.9638H39.5651C39.147 24.9638 38.9647 24.7808 38.9647 24.3609V21.9388C38.9647 21.4975 39.147 21.3252 39.5866 21.3252H42.6424C42.621 19.6459 42.621 17.9774 42.621 16.2765V16.2765ZM1.80132 7.40625V14.3927C1.89782 14.3388 1.97288 14.2958 2.03721 14.2527C4.51405 12.5196 9.65002 13.1439 10.6257 17.9235C10.9581 19.5275 10.8402 21.1099 10.036 22.5632C9.16751 24.1349 7.77362 25.0176 6.04734 25.3621C3.96722 25.7711 2.02649 25.3298 0.182259 24.3502C-1.99218e-05 24.2533 -1.99242e-05 24.1241 -1.99242e-05 23.9626V17.2669C-1.99242e-05 14.2958 -1.99242e-05 11.3139 -0.0107422 8.34279C-0.0107422 8.10597 0.0428691 7.99832 0.278759 7.92296C0.793428 7.78302 1.27593 7.58925 1.80132 7.40625V7.40625ZM1.80132 19.7105C1.80132 20.8193 1.81204 21.9281 1.80132 23.0368C1.80132 23.2414 1.85493 23.3383 2.04793 23.4028C3.19521 23.8011 4.36394 23.9842 5.57556 23.8012C7.25895 23.532 8.40623 22.5309 8.80296 20.9269C8.97451 20.2272 9.00668 19.506 8.93163 18.7955C8.79224 17.536 8.30973 16.4487 7.23751 15.706C6.31539 15.0708 5.28606 14.9632 4.21383 15.1247C3.39894 15.2431 2.63766 15.4907 1.9836 16.0289C1.85493 16.1366 1.80132 16.2442 1.80132 16.4164V19.7105V19.7105ZM111.351 13.4992H113.098V14.7371C113.27 14.5864 113.409 14.4572 113.549 14.3388C115.275 12.864 117.698 12.6487 119.532 13.8221C120.325 14.3281 120.947 15.0062 121.322 15.8674C122.191 17.8374 122.223 19.8397 121.322 21.7989C120.261 24.081 117.945 25.2759 115.468 24.9099C114.642 24.7915 113.87 24.5655 113.12 24.081V28.8068C113.12 29.0436 113.066 29.119 112.82 29.1082C112.337 29.0867 111.855 29.1082 111.361 29.1082C111.351 23.898 111.351 18.7094 111.351 13.4992V13.4992ZM113.098 19.4521C113.098 20.3672 113.109 21.2822 113.088 22.1864C113.088 22.391 113.152 22.5094 113.324 22.617C114.289 23.2306 115.361 23.489 116.487 23.4244C117.988 23.3383 119.092 22.5955 119.682 21.1961C120.25 19.8504 120.282 18.4402 119.843 17.0516C119.542 16.1043 118.91 15.4153 117.977 15.0385C116.358 14.3819 114.503 14.8663 113.27 16.255C113.173 16.3626 113.109 16.5349 113.109 16.6748C113.098 17.6113 113.098 18.5371 113.098 19.4521V19.4521ZM23.7605 19.506H14.207C14.2177 20.421 14.3678 21.2822 14.8396 22.068C15.5151 23.166 16.5337 23.715 17.7668 23.855C19.4394 24.0487 21.0263 23.6935 22.5275 22.9292C22.5918 22.8969 22.6561 22.8646 22.7312 22.8323V24.5978C21.6482 25.0822 20.5117 25.3728 19.3215 25.4697C18.2385 25.5558 17.1663 25.5128 16.1263 25.1468C14.0569 24.4363 12.8453 22.9615 12.4592 20.8193C12.2555 19.7105 12.277 18.6017 12.5772 17.5145C13.1884 15.3077 14.668 14.0159 16.8768 13.5315C18.1099 13.2623 19.3322 13.2839 20.5009 13.8221C22.1415 14.5864 23.0743 15.932 23.4817 17.6544C23.6318 18.2465 23.6747 18.8601 23.7605 19.506V19.506ZM21.8198 18.1388C21.8305 18.1065 21.8412 18.0958 21.8412 18.0742V17.9989C21.7126 16.9116 21.2408 16.0181 20.2865 15.4368C18.9677 14.6402 17.0269 14.7802 15.7081 15.749C14.9039 16.3411 14.4536 17.1485 14.282 18.1388H21.8198V18.1388ZM137.91 13.0578C139.69 13.1009 141.234 13.6176 142.435 14.9094C143.239 15.7706 143.678 16.8147 143.839 17.9881C144.032 19.4306 143.882 20.83 143.153 22.1218C142.317 23.6181 140.998 24.4686 139.347 24.8238C137.974 25.1145 136.623 25.0068 135.336 24.447C133.342 23.5643 132.281 21.9927 132.034 19.8504C131.884 18.5587 132.034 17.2884 132.634 16.115C133.514 14.4034 134.972 13.4884 136.827 13.1547C136.966 13.1332 137.106 13.1116 137.256 13.1009C137.492 13.0901 137.727 13.0793 137.91 13.0578V13.0578ZM137.61 14.5972C136.913 14.5972 135.98 14.9094 135.176 15.5876C133.46 17.0408 133.396 20.0334 134.479 21.6266C135.465 23.0907 136.902 23.6074 138.596 23.3921C140.076 23.1983 141.159 22.4125 141.77 21.0238C142.124 20.2057 142.199 19.3337 142.124 18.451C141.92 16.1689 140.236 14.5972 137.61 14.5972V14.5972ZM104.113 22.2402C105.368 19.2799 106.59 16.3842 107.812 13.4992H109.582C109.453 13.8221 109.324 14.1343 109.196 14.4357C107.19 19.1292 105.175 23.8119 103.191 28.5162C102.987 29.0006 102.762 29.1944 102.247 29.1298C101.894 29.0867 101.54 29.119 101.143 29.119C101.336 28.6561 101.518 28.2363 101.701 27.8164C102.162 26.74 102.633 25.6742 103.084 24.587C103.127 24.4793 103.127 24.3179 103.084 24.2102L98.6126 13.7145C98.5805 13.6499 98.559 13.5853 98.5269 13.4884C99.1595 13.4884 99.7599 13.4776 100.36 13.4992C100.425 13.4992 100.5 13.6176 100.532 13.6929C101.422 15.8028 102.301 17.9128 103.18 20.0227C103.481 20.7332 103.781 21.4436 104.113 22.2402V22.2402ZM89.5845 15.2431C88.8125 15.0708 88.0726 14.8663 87.3221 14.7587C85.8424 14.5326 84.4485 14.791 83.3549 15.889C82.0467 17.1915 81.7894 18.8062 82.3362 20.5071C82.8616 22.1541 84.0732 23.0691 85.7566 23.3275C86.979 23.5105 88.1477 23.2521 89.3057 22.8538C89.37 22.8323 89.4344 22.8108 89.5094 22.7785H89.5845V24.3825C89.5845 24.4255 89.5309 24.4901 89.4773 24.5116C87.1184 25.2006 84.8024 25.2975 82.6472 23.8873C81.1139 22.8861 80.3955 21.3898 80.2668 19.5921C80.1703 18.2895 80.3633 17.03 81.0388 15.889C81.9181 14.4142 83.2583 13.5853 84.8989 13.2408C86.4214 12.9179 87.9333 13.0686 89.4129 13.553C89.488 13.5745 89.5738 13.6929 89.5738 13.7683C89.5952 14.2635 89.5845 14.7694 89.5845 15.2431V15.2431ZM125.064 14.9847H123.092C123.156 14.834 123.177 14.7048 123.252 14.6079C124.346 13.3377 125.44 12.0782 126.544 10.8295C126.608 10.7541 126.716 10.7218 126.801 10.668C126.823 10.7649 126.877 10.8618 126.877 10.9587C126.887 11.6907 126.877 12.4227 126.877 13.1655V13.4776H130.576V14.9847H126.877V21.3898C126.877 21.6805 126.898 21.9819 126.941 22.2725C127.048 22.8646 127.338 23.0907 127.949 23.0799C128.764 23.0584 129.536 22.8861 130.297 22.6062C130.393 22.574 130.501 22.5309 130.629 22.4878C130.629 22.9938 130.629 23.4674 130.619 23.9519C130.619 24.0057 130.554 24.081 130.501 24.1026C129.364 24.6193 128.185 24.8884 126.941 24.6946C126.094 24.5655 125.526 24.0487 125.3 23.2306C125.161 22.7139 125.086 22.1541 125.086 21.6159C125.064 19.5167 125.075 17.4283 125.075 15.3292C125.064 15.2215 125.064 15.1247 125.064 14.9847V14.9847ZM91.9327 13.4992H93.6911V16.072C93.7126 16.0827 93.734 16.1043 93.7554 16.115C94.5167 14.1451 96.0178 13.2731 98.0336 13.1332V15.0601C97.6476 15.1139 97.2402 15.1354 96.8542 15.2215C95.085 15.6198 94.1629 16.804 93.8305 18.5156C93.734 19.0215 93.7018 19.549 93.6911 20.0657C93.6697 21.4436 93.6804 22.8215 93.6804 24.1995V24.5332H91.9219C91.9327 20.8731 91.9327 17.1915 91.9327 13.4992V13.4992Z" fill="#2A2A2A"/>
</svg>
