<svg width="151" height="21" viewBox="0 0 151 21" fill="none" xmlns="http://www.w3.org/2000/svg">
<path d="M21.7135 20.9017H36.2105V17.0031H26.1075V12.22H34.4785V8.32137H26.1075V3.8986H36.2746V0H21.7135V20.9017ZM53.6582 13.17L44.1646 0H37.6217L39.6744 2.65367V20.9672H44.0363V7.24025L53.8507 20.9017H58.0523V0H53.6582V13.17ZM15.1064 10.156C17.0308 9.79563 18.6345 7.961 18.6345 5.37285C18.6345 2.58814 16.6459 0 12.7009 0H0L1.98853 2.58814V20.9345H13.15C17.0949 20.9345 19.1476 18.4119 19.1476 15.2668C19.0514 12.6786 17.3195 10.4509 15.1064 10.156V10.156ZM6.35047 3.93136H11.835C13.3103 3.93136 14.2404 4.81591 14.2404 6.12637C14.2404 7.43682 13.3103 8.32137 11.835 8.32137H6.35047V3.93136ZM12.0274 17.0359H6.35047V12.22H12.0274C13.6952 12.22 14.6253 13.3011 14.6253 14.6115C14.6253 16.1186 13.6311 17.0031 12.0274 17.0359V17.0359ZM122.134 13.17H124.411V15.6271C123.225 16.61 121.749 17.1669 120.21 17.1997C116.554 17.1997 113.988 14.3495 113.988 10.5164C113.988 6.68331 116.586 3.83307 120.21 3.83307C122.102 3.83307 123.866 4.84867 124.893 6.48674L128.356 4.52106C126.881 2.12949 124.283 0 120.178 0C114.373 0 109.562 4.09516 109.562 10.4509C109.562 16.8066 114.308 20.9017 120.178 20.9017C123.385 20.9672 126.432 19.5585 128.549 17.1342V9.4025H119.184L122.134 13.17ZM102.409 13.17L92.8836 0H86.3728L88.3934 2.65367V20.9672H92.7874V7.24025L102.602 20.9017H106.771V0H102.409V13.17ZM143.046 0H134.611L136.631 2.65367L136.278 3.66927L129.736 20.9672H134.675L135.958 17.429H144.778L146.061 20.9672H151L143.046 0ZM137.08 13.4977L140.288 4.4883L143.495 13.4977H137.08ZM79.445 0H83.839V21H79.445V0ZM75.949 3.60374V0H60.5219V3.8986H70.2079L60.5219 17.3307V20.9017H76.1094V17.0031H66.1988L75.949 3.60374Z" fill="#093451"/>
</svg>
