<svg width="157" height="37" viewBox="0 0 157 37" fill="none" xmlns="http://www.w3.org/2000/svg">
<path d="M22.7934 26.7809L16.2403 29.63V29.3451C14.977 29.6684 13.5768 29.855 12.2514 29.9149C6.08828 29.855 1.19639 26.6296 1.13967 22.7923V21.3678C3.16378 24.3105 7.28466 26.283 12.2514 26.2111C13.9313 26.283 15.6505 26.0165 17.095 25.6413L17.6649 24.2168C15.9518 24.7281 14.0819 25.0835 12.2514 25.0715C6.08828 25.0835 1.19639 21.8581 1.13967 17.9489V16.8093C3.16378 19.5301 7.2758 21.5027 12.2514 21.3678C14.4896 21.5027 16.6785 21.0318 18.5196 20.2282L18.8045 18.8036C17.0064 19.7523 14.6757 20.3032 12.2514 20.2282C6.08828 20.3032 1.19639 17.0777 1.13967 13.1056V11.966C3.16378 14.7498 7.28466 16.7223 12.2514 16.8093C15.0745 16.7223 17.7508 15.976 19.9442 14.815L20.2291 13.1056C18.2382 14.581 15.3315 15.5317 12.2514 15.6697C6.08828 15.5317 1.19639 12.3063 1.13967 8.2622C1.19639 4.41605 6.08828 1.19064 12.2514 1.13961C15.9252 1.19064 19.3372 2.47903 21.3688 4.55846L21.5667 4.88821L23.0033 4.89388L22.7934 4.55846C20.7728 1.81262 16.7317 0 12.2514 0C5.43248 0 0 3.75853 0 8.2622V8.54711V23.0772C0.239277 27.4737 5.54769 31.0545 12.2514 31.0545C16.6785 31.0545 20.6576 29.313 22.7934 26.7809Z" fill="#263238"/>
<path d="M20.1277 36.8052L22.428 27.0288L15.8146 29.9042L19.8402 12.9393H12.0765L14.0893 4.60059H38.8179L36.8051 12.9393H28.7539L27.0287 17.54L35.9425 13.8019L20.1277 36.8052ZM24.1533 25.016L23.0031 30.7669L32.492 16.3898L24.7284 19.8403L28.1789 11.7891H35.9425L37.3802 5.75075H14.952L13.5142 11.7891H21.2779L17.5398 27.8915L24.1533 25.016Z" fill="#FABF2C"/>
<path d="M55.2402 10.1804L55.252 10.2157C55.2677 11.1317 54.9886 11.8492 54.4147 12.3681C53.8407 12.887 53.0486 13.1465 52.0382 13.1465C51.0083 13.1465 50.1768 12.8153 49.5439 12.1528C48.9109 11.4904 48.5945 10.6344 48.5945 9.58477V7.88058C48.5945 6.83487 48.9031 5.97885 49.5203 5.3125C50.1375 4.64616 50.9473 4.31299 51.9498 4.31299C52.9955 4.31299 53.8132 4.56852 54.4029 5.07958C54.9926 5.59064 55.2795 6.31005 55.2638 7.23783L55.252 7.27321H53.5773C53.5773 6.72283 53.4446 6.313 53.1793 6.04371C52.9139 5.77442 52.5041 5.63978 51.9498 5.63978C51.4348 5.63978 51.0328 5.84715 50.7439 6.2619C50.4549 6.67664 50.3105 7.21227 50.3105 7.86879V9.58477C50.3105 10.2452 50.4628 10.7838 50.7675 11.2005C51.0721 11.6172 51.4957 11.8256 52.0382 11.8256C52.5532 11.8256 52.9375 11.6909 53.1911 11.4216C53.4446 11.1523 53.5714 10.7386 53.5714 10.1804H55.2402ZM64.6961 9.50222C64.6961 10.5597 64.364 11.4315 63.6996 12.1175C63.0352 12.8035 62.1703 13.1465 61.105 13.1465C60.0435 13.1465 59.1826 12.8025 58.5221 12.1145C57.8617 11.4265 57.5315 10.5558 57.5315 9.50222V7.95724C57.5315 6.9076 57.8607 6.03782 58.5192 5.34789C59.1777 4.65795 60.0357 4.31299 61.0932 4.31299C62.1585 4.31299 63.0254 4.65795 63.6937 5.34789C64.362 6.03782 64.6961 6.9076 64.6961 7.95724V9.50222ZM62.9802 7.94545C62.9802 7.27713 62.8131 6.72873 62.4789 6.30023C62.1448 5.87172 61.6828 5.65747 61.0932 5.65747C60.5113 5.65747 60.0583 5.87172 59.7339 6.30023C59.4096 6.72873 59.2474 7.27713 59.2474 7.94545V9.50222C59.2474 10.1823 59.4106 10.7366 59.7369 11.1651C60.0632 11.5936 60.5192 11.8079 61.105 11.8079C61.6946 11.8079 62.1546 11.5936 62.4848 11.1651C62.815 10.7366 62.9802 10.1823 62.9802 9.50222V7.94545ZM69.1633 13.0226H67.4414V4.43682H69.1633V13.0226ZM79.0733 13.0226H77.3514L73.8899 7.23193L73.8546 7.23783V13.0226H72.1327V4.43682H73.8546L77.316 10.2216L77.3514 10.2157V4.43682H79.0733V13.0226ZM87.7331 5.76361H85.28V13.0226H83.5581V5.76361H81.1404V4.43682H87.7331V5.76361ZM94.848 9.24865H91.6637V11.7017H95.4494V13.0226H89.9418V4.43682H95.4376V5.76361H91.6637V7.92186H94.848V9.24865ZM99.6454 11.7017H103.49V13.0226H97.9235V4.43682H99.6454V11.7017ZM110.805 9.24865H107.621V11.7017H111.407V13.0226H105.899V4.43682H111.395V5.76361H107.621V7.92186H110.805V9.24865ZM120.462 11.8492C120.195 12.199 119.796 12.5027 119.265 12.7602C118.734 13.0177 118.05 13.1465 117.213 13.1465C116.175 13.1465 115.326 12.8202 114.665 12.1676C114.005 11.515 113.675 10.6678 113.675 9.62605V7.83341C113.675 6.79556 113.995 5.94937 114.636 5.29481C115.277 4.64026 116.1 4.31299 117.107 4.31299C118.156 4.31299 118.96 4.56164 119.518 5.05894C120.077 5.55624 120.346 6.21963 120.326 7.04913L120.314 7.08451H118.693C118.693 6.62848 118.561 6.27369 118.298 6.02013C118.034 5.76656 117.651 5.63978 117.148 5.63978C116.621 5.63978 116.196 5.84322 115.874 6.2501C115.552 6.65699 115.391 7.18082 115.391 7.82161V9.62605C115.391 10.2747 115.556 10.8035 115.886 11.2123C116.216 11.6212 116.658 11.8256 117.213 11.8256C117.622 11.8256 117.945 11.7843 118.183 11.7017C118.421 11.6192 118.604 11.515 118.734 11.3892V9.7263H117.083V8.53513H120.462V11.8492ZM124.911 9.59067V13.0226H123.189V4.43682H126.161C127.14 4.43682 127.906 4.65992 128.458 5.10611C129.011 5.55231 129.287 6.17442 129.287 6.97247C129.287 7.41277 129.17 7.79311 128.936 8.11351C128.702 8.4339 128.361 8.69238 127.913 8.88894C128.42 9.03833 128.785 9.28796 129.007 9.63784C129.229 9.98772 129.34 10.4202 129.34 10.9351V11.5661C129.34 11.8059 129.372 12.0565 129.437 12.318C129.502 12.5794 129.613 12.773 129.77 12.8988V13.0226H127.995C127.838 12.8968 127.737 12.6885 127.692 12.3976C127.646 12.1067 127.624 11.8256 127.624 11.5543V10.9469C127.624 10.5184 127.507 10.1853 127.273 9.94743C127.039 9.70959 126.708 9.59067 126.279 9.59067H124.911ZM124.911 8.26388H126.132C126.616 8.26388 126.975 8.16167 127.211 7.95724C127.447 7.75282 127.565 7.45011 127.565 7.04913C127.565 6.656 127.446 6.34347 127.208 6.11153C126.97 5.87958 126.621 5.76361 126.161 5.76361H124.911V8.26388ZM136.626 11.171H133.842L133.265 13.0226H131.466L134.361 4.43682H136.125L139.008 13.0226H137.21L136.626 11.171ZM134.267 9.82064H136.207L135.258 6.79556H135.222L134.267 9.82064ZM142.821 9.9091V13.0226H141.099V4.43682H144.383C145.37 4.43682 146.147 4.68842 146.713 5.19162C147.279 5.69482 147.562 6.35723 147.562 7.17886C147.562 8.00049 147.279 8.66093 146.713 9.1602C146.147 9.65947 145.37 9.9091 144.383 9.9091H142.821ZM142.821 8.58231H144.383C144.863 8.58231 145.227 8.45159 145.474 8.19017C145.722 7.92874 145.846 7.59557 145.846 7.19065C145.846 6.77787 145.723 6.43684 145.477 6.16755C145.232 5.89826 144.867 5.76361 144.383 5.76361H142.821V8.58231ZM157 13.0226H155.278V9.45504H151.781V13.0226H150.059V4.43682H151.781V8.12825H155.278V4.43682H157V13.0226Z" fill="#253137"/>
<path fill-rule="evenodd" clip-rule="evenodd" d="M52.018 27.3162H50.9442V21.6687H49.0123V20.7476H53.95V21.6687H52.018V27.3162ZM59.2156 27.3162H58.1553V24.261C58.1553 23.8776 58.0781 23.5916 57.9239 23.4029C57.7696 23.2142 57.5248 23.1198 57.1893 23.1198C56.746 23.1198 56.4203 23.2524 56.2121 23.5175C56.0039 23.7825 55.8998 24.2266 55.8998 24.8496V27.3162H54.844V20.3253H55.8998V22.1C55.8998 22.3845 55.8819 22.6885 55.8459 23.012H55.9133C56.0571 22.7724 56.257 22.5867 56.5131 22.4549C56.7692 22.3231 57.068 22.2572 57.4094 22.2572C58.6135 22.2572 59.2156 22.8637 59.2156 24.0768V27.3162ZM62.8548 27.406C62.082 27.406 61.4777 27.1806 61.0419 26.7298C60.6061 26.2791 60.3882 25.6583 60.3882 24.8676C60.3882 24.0558 60.5904 23.4179 60.9947 22.9536C61.3991 22.4893 61.9547 22.2572 62.6616 22.2572C63.3175 22.2572 63.8357 22.4564 64.2161 22.8548C64.5965 23.2531 64.7867 23.8013 64.7867 24.4991V25.0697H61.4755C61.4904 25.552 61.6207 25.9226 61.8663 26.1817C62.1119 26.4408 62.4579 26.5703 62.9042 26.5703C63.1977 26.5703 63.471 26.5426 63.7241 26.4872C63.9772 26.4318 64.249 26.3397 64.5396 26.2109V27.069C64.282 27.1919 64.0214 27.2787 63.7578 27.3296C63.4942 27.3806 63.1932 27.406 62.8548 27.406ZM62.6616 23.0569C62.3261 23.0569 62.0573 23.1633 61.8551 23.3759C61.6529 23.5886 61.5324 23.8986 61.4934 24.306H63.7488C63.7428 23.8956 63.644 23.5849 63.4523 23.3737C63.2606 23.1625 62.997 23.0569 62.6616 23.0569ZM70.87 23.1468H69.6569V27.3162H68.5966V23.1468H67.7789V22.6526L68.5966 22.3291V22.0056C68.5966 21.4186 68.7344 20.9835 69.0099 20.7005C69.2855 20.4174 69.7063 20.2759 70.2724 20.2759C70.6438 20.2759 71.0093 20.3373 71.3687 20.4601L71.0901 21.2598C70.8295 21.1759 70.5809 21.134 70.3443 21.134C70.1047 21.134 69.9302 21.2081 69.8209 21.3564C69.7116 21.5047 69.6569 21.7271 69.6569 22.0236V22.3471H70.87V23.1468ZM75.219 27.3162L75.0708 26.6647H75.0169C74.8701 26.8953 74.6612 27.0765 74.3901 27.2083C74.119 27.3401 73.8098 27.406 73.4623 27.406C72.8603 27.406 72.411 27.2563 72.1145 26.9567C71.818 26.6572 71.6697 26.2034 71.6697 25.5954V22.3471H72.7345V25.4112C72.7345 25.7916 72.8124 26.0769 72.9681 26.2671C73.1239 26.4573 73.368 26.5524 73.7005 26.5524C74.1438 26.5524 74.4695 26.4198 74.6777 26.1548C74.8858 25.8897 74.9899 25.4456 74.9899 24.8226V22.3471H76.0502V27.3162H75.219ZM79.4064 26.5524C79.664 26.5524 79.9215 26.5119 80.1791 26.4311V27.2263C80.0623 27.2772 79.9118 27.3199 79.7276 27.3543C79.5434 27.3888 79.3525 27.406 79.1548 27.406C78.1544 27.406 77.6542 26.8789 77.6542 25.8245V23.1468H76.9757V22.6795L77.7036 22.2932L78.063 21.2418H78.7145V22.3471H80.1297V23.1468H78.7145V25.8066C78.7145 26.0612 78.7781 26.2491 78.9054 26.3704C79.0327 26.4917 79.1997 26.5524 79.4064 26.5524ZM84.6765 27.3162L84.5282 26.6647H84.4743C84.3275 26.8953 84.1186 27.0765 83.8475 27.2083C83.5765 27.3401 83.2672 27.406 82.9198 27.406C82.3177 27.406 81.8684 27.2563 81.5719 26.9567C81.2754 26.6572 81.1271 26.2034 81.1271 25.5954V22.3471H82.1919V25.4112C82.1919 25.7916 82.2698 26.0769 82.4256 26.2671C82.5813 26.4573 82.8254 26.5524 83.1579 26.5524C83.6012 26.5524 83.9269 26.4198 84.1351 26.1548C84.3433 25.8897 84.4473 25.4456 84.4473 24.8226V22.3471H85.5076V27.3162H84.6765ZM89.5332 22.2572C89.7459 22.2572 89.9211 22.2722 90.0589 22.3021L89.9556 23.2861C89.8058 23.2501 89.65 23.2322 89.4883 23.2322C89.066 23.2322 88.7238 23.3699 88.4617 23.6455C88.1996 23.9211 88.0686 24.279 88.0686 24.7193V27.3162H87.0127V22.3471H87.8394L87.9787 23.2232H88.0326C88.1974 22.9267 88.4123 22.6915 88.6773 22.5178C88.9424 22.3441 89.2277 22.2572 89.5332 22.2572ZM92.9658 27.406C92.193 27.406 91.5887 27.1806 91.1529 26.7298C90.7171 26.2791 90.4992 25.6583 90.4992 24.8676C90.4992 24.0558 90.7014 23.4179 91.1057 22.9536C91.5101 22.4893 92.0657 22.2572 92.7726 22.2572C93.4285 22.2572 93.9467 22.4564 94.3271 22.8548C94.7075 23.2531 94.8977 23.8013 94.8977 24.4991V25.0697H91.5865C91.6014 25.552 91.7317 25.9226 91.9773 26.1817C92.2229 26.4408 92.5689 26.5703 93.0152 26.5703C93.3087 26.5703 93.582 26.5426 93.8351 26.4872C94.0882 26.4318 94.36 26.3397 94.6506 26.2109V27.069C94.393 27.1919 94.1324 27.2787 93.8688 27.3296C93.6052 27.3806 93.3042 27.406 92.9658 27.406ZM92.7726 23.0569C92.4371 23.0569 92.1683 23.1633 91.9661 23.3759C91.7639 23.5886 91.6434 23.8986 91.6044 24.306H93.8598C93.8538 23.8956 93.755 23.5849 93.5633 23.3737C93.3716 23.1625 93.108 23.0569 92.7726 23.0569ZM102.895 24.8226C102.895 25.6343 102.687 26.2678 102.27 26.7231C101.854 27.1784 101.275 27.406 100.532 27.406C100.067 27.406 99.6571 27.3012 99.3007 27.0915C98.9442 26.8818 98.6702 26.5808 98.4785 26.1885C98.2868 25.7961 98.1909 25.3408 98.1909 24.8226C98.1909 24.0169 98.3976 23.3879 98.8109 22.9356C99.2243 22.4834 99.8068 22.2572 100.559 22.2572C101.278 22.2572 101.847 22.4886 102.266 22.9514C102.685 23.4141 102.895 24.0379 102.895 24.8226ZM99.2782 24.8226C99.2782 25.9698 99.702 26.5434 100.55 26.5434C101.388 26.5434 101.808 25.9698 101.808 24.8226C101.808 23.6874 101.385 23.1198 100.541 23.1198C100.097 23.1198 99.7761 23.2666 99.577 23.5601C99.3778 23.8537 99.2782 24.2745 99.2782 24.8226ZM106.602 23.1468H105.388V27.3162H104.328V23.1468H103.51V22.6526L104.328 22.3291V22.0056C104.328 21.4186 104.466 20.9835 104.741 20.7005C105.017 20.4174 105.438 20.2759 106.004 20.2759C106.375 20.2759 106.741 20.3373 107.1 20.4601L106.822 21.2598C106.561 21.1759 106.312 21.134 106.076 21.134C105.836 21.134 105.662 21.2081 105.552 21.3564C105.443 21.5047 105.388 21.7271 105.388 22.0236V22.3471H106.602V23.1468ZM114.024 27.3162H112.963V24.252C112.963 23.8716 112.891 23.5878 112.748 23.4006C112.604 23.2134 112.379 23.1198 112.074 23.1198C111.666 23.1198 111.368 23.2524 111.177 23.5175C110.987 23.7825 110.892 24.2236 110.892 24.8406V27.3162H109.836V22.3471H110.663L110.811 22.9985H110.865C111.003 22.7619 111.203 22.5792 111.465 22.4504C111.727 22.3216 112.015 22.2572 112.33 22.2572C113.094 22.2572 113.6 22.5178 113.848 23.039H113.92C114.067 22.7934 114.274 22.6017 114.54 22.4639C114.807 22.3261 115.112 22.2572 115.457 22.2572C116.05 22.2572 116.482 22.407 116.753 22.7065C117.024 23.006 117.16 23.4628 117.16 24.0768V27.3162H116.104V24.252C116.104 23.8716 116.031 23.5878 115.886 23.4006C115.741 23.2134 115.515 23.1198 115.21 23.1198C114.799 23.1198 114.499 23.2479 114.309 23.504C114.119 23.7601 114.024 24.1532 114.024 24.6834V27.3162ZM123.041 24.8226C123.041 25.6343 122.833 26.2678 122.416 26.7231C122 27.1784 121.42 27.406 120.678 27.406C120.213 27.406 119.803 27.3012 119.447 27.0915C119.09 26.8818 118.816 26.5808 118.624 26.1885C118.433 25.7961 118.337 25.3408 118.337 24.8226C118.337 24.0169 118.543 23.3879 118.957 22.9356C119.37 22.4834 119.953 22.2572 120.705 22.2572C121.423 22.2572 121.992 22.4886 122.412 22.9514C122.831 23.4141 123.041 24.0379 123.041 24.8226ZM119.424 24.8226C119.424 25.9698 119.848 26.5434 120.696 26.5434C121.534 26.5434 121.954 25.9698 121.954 24.8226C121.954 23.6874 121.531 23.1198 120.687 23.1198C120.243 23.1198 119.922 23.2666 119.723 23.5601C119.524 23.8537 119.424 24.2745 119.424 24.8226ZM128.625 27.3162H127.565V24.261C127.565 23.8776 127.488 23.5916 127.334 23.4029C127.179 23.2142 126.935 23.1198 126.599 23.1198C126.153 23.1198 125.826 23.2516 125.62 23.5152C125.413 23.7788 125.31 24.2206 125.31 24.8406V27.3162H124.254V22.3471H125.081L125.229 22.9985H125.283C125.432 22.7619 125.645 22.5792 125.921 22.4504C126.196 22.3216 126.502 22.2572 126.837 22.2572C128.029 22.2572 128.625 22.8637 128.625 24.0768V27.3162ZM132.265 27.406C131.492 27.406 130.888 27.1806 130.452 26.7298C130.016 26.2791 129.798 25.6583 129.798 24.8676C129.798 24.0558 130 23.4179 130.405 22.9536C130.809 22.4893 131.365 22.2572 132.071 22.2572C132.727 22.2572 133.246 22.4564 133.626 22.8548C134.006 23.2531 134.197 23.8013 134.197 24.4991V25.0697H130.885C130.9 25.552 131.031 25.9226 131.276 26.1817C131.522 26.4408 131.868 26.5703 132.314 26.5703C132.608 26.5703 132.881 26.5426 133.134 26.4872C133.387 26.4318 133.659 26.3397 133.949 26.2109V27.069C133.692 27.1919 133.431 27.2787 133.168 27.3296C132.904 27.3806 132.603 27.406 132.265 27.406ZM132.071 23.0569C131.736 23.0569 131.467 23.1633 131.265 23.3759C131.063 23.5886 130.942 23.8986 130.903 24.306H133.159C133.153 23.8956 133.054 23.5849 132.862 23.3737C132.67 23.1625 132.407 23.0569 132.071 23.0569ZM134.457 22.3471H135.607L136.618 25.1641C136.771 25.5654 136.873 25.9428 136.924 26.2963H136.96C136.987 26.1315 137.036 25.9316 137.108 25.6965C137.18 25.4614 137.56 24.3449 138.249 22.3471H139.39L137.265 27.9766C136.879 29.01 136.235 29.5266 135.333 29.5266C135.1 29.5266 134.872 29.5012 134.65 29.4503V28.6146C134.809 28.6505 134.99 28.6685 135.194 28.6685C135.703 28.6685 136.061 28.3735 136.268 27.7834L136.452 27.3162L134.457 22.3471Z" fill="#263238"/>
</svg>
