<svg width="130" height="49" viewBox="0 0 130 49" fill="none" xmlns="http://www.w3.org/2000/svg">
<g clip-path="url(#clip0_24_1959)">
<path d="M0 12.0661C0.528733 11.7678 1.05088 11.5001 1.5511 11.1886C2.51203 10.6028 3.49929 10.0654 4.44486 9.45546C4.9736 9.11542 5.57692 8.88945 6.12321 8.57793C6.98541 8.07554 7.82129 7.52927 8.67692 7.01591C9.1157 6.75704 9.56545 6.52449 10.0152 6.28755C11.2986 5.61404 12.5382 4.85498 13.7843 4.12004C14.9515 3.43336 16.134 2.76644 17.2946 2.04686C18.2095 1.47207 19.1594 0.925802 20.1379 0.438769C20.4034 0.304944 20.6623 0.133824 20.8904 0C21.5003 0.366372 22.0422 0.704224 22.5973 1.02014C23.6175 1.60151 24.6245 2.21139 25.638 2.79715C26.5814 3.34122 27.5424 3.86775 28.4901 4.41182C29.3326 4.89227 30.1926 5.3464 30.9956 5.89924C31.4102 6.18444 31.9017 6.35556 32.3317 6.62102C33.3102 7.22652 34.3325 7.75743 35.2891 8.39803C35.8134 8.74905 36.4211 8.96843 36.9696 9.27557C37.8099 9.76041 38.6238 10.2913 39.4641 10.7784C40.1222 11.1601 40.8002 11.5067 41.4693 11.8753C41.5653 11.9334 41.6583 11.9964 41.7479 12.0639V21.5479H29.8372V19.0601L21.1449 14.0143C20.9358 13.9957 20.7252 14.0202 20.526 14.0862C20.3267 14.1523 20.1431 14.2584 19.9865 14.3982C19.568 14.6874 19.128 14.9441 18.6702 15.166C17.6412 15.732 16.6562 16.3792 15.6316 16.9431C14.6751 17.4718 13.7492 18.0553 12.7795 18.5446C12.5053 18.6806 12.2552 18.8583 11.9722 19.0316V29.3975C12.9156 29.9591 13.8063 30.569 14.765 31.0385C15.6426 31.4641 16.4214 32.0279 17.2858 32.4689C18.2841 32.9779 19.2231 33.6053 20.1774 34.1998C20.4656 34.3827 20.8082 34.4602 21.1471 34.4192L29.8372 29.3975V26.8702H41.7523V36.3827C41.2675 36.6503 40.708 36.9114 40.2034 37.2602C39.271 37.8943 38.2443 38.3572 37.3031 38.9846C36.5001 39.5133 35.6138 39.9148 34.7757 40.3952C33.8257 40.9437 32.9174 41.5711 31.939 42.0626C31.0724 42.5013 30.2979 43.0805 29.4182 43.4951C28.7973 43.7869 28.2466 44.2257 27.6499 44.5745C27.2111 44.8334 26.7416 45.0286 26.3094 45.2941C25.3309 45.8974 24.3107 46.4283 23.352 47.0689C22.8298 47.4199 22.2287 47.6525 21.6736 47.9464C21.4257 48.0825 21.1998 48.258 20.9826 48.405C20.8795 48.405 20.7632 48.4401 20.7193 48.405C20.0984 47.9004 19.3503 47.6064 18.6833 47.1852C17.8606 46.6652 16.9809 46.2462 16.1845 45.6868C15.7532 45.4184 15.3071 45.1745 14.8484 44.9562C13.8677 44.4166 12.8739 43.8747 11.9349 43.2889C10.7809 42.5781 9.59836 41.9156 8.42462 41.2289C7.57338 40.7265 6.71556 40.2241 5.85336 39.7349C4.899 39.193 3.95782 38.6182 3.00127 38.0939C2.04473 37.5696 1.21762 36.9048 0.20184 36.5407C0.133829 36.5165 0.0855625 36.4288 0 36.3432V12.0661ZM20.8553 45.6846C21.2941 45.395 21.6824 45.1998 22.0532 44.9738C23.0756 44.3507 24.1155 43.7474 25.162 43.1683C26.43 42.4662 27.6521 41.6808 28.9355 41.0051C29.3951 40.7881 29.8419 40.5449 30.2738 40.2768C31.4124 39.4936 32.6629 38.9056 33.8367 38.1838C34.5344 37.7451 35.2562 37.3699 35.9494 36.9334C36.3312 36.6942 36.7261 36.4485 37.1276 36.2313C37.913 35.8057 38.6874 35.3538 39.4575 34.9304V29.3975L39.2644 29.1781H37.0069V33.5131C36.6646 33.7172 36.3619 33.9058 36.0525 34.0835C35.6138 34.3336 35.1596 34.5706 34.7208 34.8273C33.7753 35.3845 32.8407 35.9615 31.8907 36.5099C31.0526 36.9926 30.1729 37.4006 29.3611 37.9206C28.4572 38.4998 27.5007 38.9846 26.5836 39.5396C25.7346 40.0508 24.8482 40.5071 24.0058 41.0205C23.0448 41.6062 22.0444 42.1174 21.0967 42.7295C20.3683 43.1946 19.5938 43.5851 18.8479 44.0239C18.747 44.0809 18.6943 44.2213 18.6066 44.3398L20.8553 45.6846ZM23.3388 6.97862C23.997 7.37351 24.6201 7.72672 25.2212 8.09967C26.2172 8.72053 27.2418 9.30409 28.262 9.87668C29.5257 10.5875 30.7564 11.3553 32.0333 12.0464C32.4928 12.2603 32.9403 12.4991 33.3738 12.7616C34.53 13.5689 35.8134 14.1503 37.0266 14.9554V19.2641H39.2535L39.4487 19.0667V13.5514C39.1065 13.332 38.7905 13.1126 38.4549 12.9195C37.8998 12.6124 37.3009 12.3799 36.7743 12.042C35.7915 11.3839 34.7735 10.8135 33.7445 10.2452C33.3211 10.0127 32.867 9.80648 32.4787 9.54541C31.6954 9.01011 30.8596 8.57135 30.0412 8.09967C29.0715 7.54243 28.1325 6.93254 27.1189 6.4499C26.6878 6.20579 26.2763 5.92853 25.8882 5.62063C25.0106 5.62063 24.4709 6.41041 23.6789 6.6276C23.5604 6.66051 23.4748 6.83602 23.3388 6.97862ZM20.7632 40.0179C20.8317 40.0258 20.9009 40.0258 20.9694 40.0179C22.1256 39.4892 23.1633 38.7455 24.3063 38.1773C24.7182 37.9775 25.1162 37.7503 25.4976 37.4972C26.6626 36.703 27.9109 36.058 29.1308 35.3669C29.9952 34.8777 30.8464 34.3644 31.7064 33.8729C32.6564 33.3267 33.6392 32.8331 34.5344 32.2056V29.1584H32.2351V30.784C31.3883 31.304 30.5436 31.791 29.6968 32.2561C28.4243 32.9559 27.2089 33.7479 25.9233 34.4214C25.4845 34.6583 25.0128 34.8777 24.5828 35.1454C23.6745 35.7143 22.7509 36.2569 21.8119 36.7732C21.0308 37.212 20.263 37.6507 19.4951 38.1114C19.1528 38.3155 18.8369 38.5502 18.4947 38.7696L20.7632 40.0179ZM4.69716 30.6392V12.0859C3.87664 12.6826 3.01224 13.0029 2.28386 13.5799V29.2439C2.85428 29.9218 3.72965 30.0908 4.3615 30.6326C4.42073 30.6853 4.56553 30.6392 4.69716 30.6392ZM2.2685 34.937C2.81479 35.2243 3.36546 35.4525 3.84593 35.775C4.80467 36.4112 5.82045 36.9531 6.80332 37.5454C7.2421 37.8065 7.70721 38.0105 8.1416 38.2694C8.99942 38.7806 9.83311 39.3268 10.6953 39.8314C11.2416 40.1495 11.8713 40.3448 12.3649 40.7287C12.8585 41.1126 13.4092 41.275 13.8831 41.6457C14.357 42.0165 14.9032 42.2052 15.4188 42.4904C15.5857 42.6019 15.7435 42.7266 15.8905 42.8633C16.3585 42.7464 16.7999 42.5417 17.1915 42.26C17.571 41.9924 18.0142 41.8212 18.3784 41.4944C17.8233 40.9854 17.1037 40.8362 16.6057 40.347C15.2894 39.7524 14.1047 38.8793 12.819 38.208C12.3802 37.9732 11.9129 37.7473 11.4785 37.4884C10.6229 36.9772 9.78704 36.4288 8.92702 35.9264C8.38074 35.6083 7.77742 35.3801 7.24649 35.0488C6.27678 34.428 5.27197 33.8729 4.2869 33.2806C3.7845 32.98 3.28429 32.6729 2.77091 32.3899C2.61123 32.3347 2.444 32.3043 2.27509 32.3L2.2685 34.937ZM7.21358 13.4373C7.95732 13.0314 8.65059 12.6716 9.32193 12.2811C10.1622 11.7919 10.9761 11.2632 11.8164 10.7762C12.3649 10.4602 12.9704 10.2365 13.4969 9.89862C14.4798 9.24047 15.5 8.67226 16.5289 8.10625C16.9677 7.86054 17.4065 7.60825 17.8453 7.34718C18.679 6.84918 19.4995 6.32704 20.3398 5.84001C21.18 5.35298 22.0313 4.90982 22.8715 4.43595C22.9746 4.37672 23.0361 4.24509 23.1436 4.11346L20.8707 2.79715L19.098 3.79535C18.7206 4.01473 18.3411 4.21437 17.9681 4.43595C17.1125 4.94492 16.2657 5.46925 15.4035 5.97164C14.8769 6.27659 14.3065 6.49158 13.7975 6.83382C12.8454 7.49197 11.7967 7.96804 10.8335 8.60206C10.3948 8.89603 9.90112 9.11761 9.43821 9.38526C8.68789 9.82403 7.94415 10.2628 7.2048 10.6906L7.21358 13.4373ZM23.3476 12.4632C23.6043 12.6343 23.8149 12.7769 24.0299 12.902C24.5016 13.2025 25.0194 13.4351 25.4823 13.7335C26.3598 14.3039 27.2988 14.7733 28.1918 15.3174C29.0401 15.8776 29.9281 16.3755 30.8486 16.807C31.2237 17.2612 31.8753 17.2897 32.2966 17.746V19.2554H34.5366V16.2344C33.6941 15.7957 32.8867 15.2604 32.0267 14.8194C31.6152 14.6182 31.2172 14.3903 30.8354 14.1371C30.0566 13.5931 29.2119 13.1718 28.3958 12.698L25.638 11.0789L23.3476 12.4632ZM23.2555 9.67046L20.8926 8.37609C20.0809 8.81486 19.2867 9.15491 18.5715 9.62658C18.1831 9.88326 17.7663 10.0654 17.3736 10.3045C16.5223 10.82 15.6843 11.3619 14.8243 11.8643C14.278 12.1824 13.6922 12.4303 13.1437 12.7418C12.7203 12.9876 12.3298 13.2925 11.9766 13.536V16.1993C12.1104 16.1423 12.196 16.1138 12.2837 16.0677C13.5035 15.3898 14.697 14.6549 15.9278 13.9989C16.349 13.7795 16.7746 13.5294 17.1893 13.2837C18.001 12.8011 18.804 12.3053 19.6201 11.8336C20.478 11.34 21.3533 10.8727 22.209 10.3769C22.5556 10.1707 22.8847 9.91617 23.2555 9.67046ZM7.23991 32.2144C7.89808 32.6159 8.55625 33.0217 9.21443 33.3991C9.76729 33.7084 10.3816 33.9212 10.8906 34.2766C11.8318 34.9501 12.8783 35.4328 13.848 36.0514C14.2867 36.3388 14.8177 36.5165 15.2389 36.8324C15.625 37.1242 16.0046 37.2712 16.3556 37.2142L18.4157 35.9637C18.19 35.8056 17.9564 35.6592 17.7158 35.5249C16.8383 35.0861 15.9892 34.5421 15.1402 34.0397C13.9642 33.3464 12.7795 32.6883 11.6277 31.9753C10.4759 31.2623 9.31754 30.6897 8.19645 29.9833C7.89808 29.7968 7.57777 29.6432 7.22016 29.4458L7.23991 32.2144ZM9.49744 27.8728C9.49744 23.5816 9.49744 19.3475 9.49744 15.1134C9.49744 15.0914 9.4755 15.0673 9.45795 15.0498C9.4324 15.03 9.40525 15.0124 9.37678 14.9971L7.22674 16.2498V26.7035C7.9639 27.0325 8.60671 27.5898 9.47989 27.8728H9.49744Z" fill="#696B6D"/>
<path d="M20.7633 40.018L18.4948 38.7719C18.8282 38.5525 19.1529 38.3177 19.4952 38.1137C20.263 37.6574 21.0309 37.2033 21.8119 36.7755C22.7524 36.2607 23.676 35.718 24.5829 35.1476C25.0216 34.88 25.4736 34.6606 25.9233 34.4237C27.209 33.7502 28.4244 32.9582 29.6969 32.2584C30.5437 31.7933 31.3884 31.3062 32.2352 30.7863V29.1606H34.5344V32.2057C33.6393 32.8331 32.6564 33.3268 31.7065 33.873C30.8465 34.3644 29.9952 34.8778 29.1308 35.367C27.911 36.0581 26.6627 36.7031 25.4977 37.4973C25.1163 37.7504 24.7183 37.9776 24.3064 38.1773C23.1656 38.7455 22.1257 39.4936 20.9695 40.018C20.901 40.0259 20.8318 40.0259 20.7633 40.018Z" fill="#1F72BC"/>
<path d="M23.3478 12.4634L25.6382 11.0791L28.396 12.6894C29.2121 13.1633 30.0568 13.5845 30.8356 14.1285C31.2188 14.3819 31.6182 14.6098 32.0313 14.8108C32.8913 15.2496 33.6987 15.7805 34.5411 16.2259V19.2665H32.2967V17.7572C31.8755 17.3008 31.2239 17.2723 30.8488 16.8182C29.9283 16.3866 29.0403 15.8888 28.1919 15.3286C27.299 14.7845 26.3644 14.315 25.4825 13.7446C25.0195 13.4463 24.5018 13.2137 24.0301 12.9132C23.8151 12.7771 23.6045 12.6345 23.3478 12.4634Z" fill="#1F72BC"/>
<path d="M23.2556 9.67084C22.8936 9.91655 22.5645 10.171 22.2091 10.3773C21.3535 10.8731 20.4781 11.3404 19.6203 11.834C18.8041 12.3056 18.0012 12.8015 17.1894 13.2841C16.7748 13.5298 16.3491 13.7755 15.9279 13.9993C14.6927 14.6574 13.5036 15.3902 12.2838 16.0681C12.2005 16.1142 12.1105 16.1427 11.9767 16.1997V13.5408C12.3299 13.2973 12.7204 12.9923 13.1438 12.7466C13.6923 12.4307 14.2781 12.1828 14.8244 11.8691C15.6844 11.3667 16.5225 10.8248 17.3737 10.3092C17.7664 10.0723 18.1833 9.88803 18.5716 9.63135C19.2868 9.15967 20.081 8.80866 20.8927 8.38086L23.2556 9.67084Z" fill="#1F72BC"/>
<path d="M7.22229 32.2149V29.4463C7.5799 29.6437 7.90021 29.7973 8.19858 29.9838C9.31967 30.6902 10.511 31.276 11.6299 31.9758C12.7488 32.6756 13.9642 33.3469 15.1379 34.0402C15.987 34.5426 16.825 35.0823 17.7136 35.5254C17.9542 35.6597 18.1877 35.8062 18.4134 35.9642L16.3533 37.2147C16.0023 37.2695 15.6228 37.1247 15.2366 36.833C14.8154 36.517 14.2933 36.3393 13.8457 36.052C12.876 35.4333 11.8295 34.955 10.8883 34.2771C10.3793 33.9108 9.76503 33.698 9.21217 33.3996C8.53644 33.0223 7.89801 32.6164 7.22229 32.2149Z" fill="#1F72BC"/>
<path d="M9.48005 27.8727C8.60248 27.5897 7.96405 27.0325 7.20715 26.7034V16.2498L9.35719 14.9971C9.38566 15.0123 9.41281 15.03 9.43836 15.0497C9.45591 15.0673 9.47785 15.0914 9.47785 15.1133C9.48005 19.3475 9.48005 23.5816 9.48005 27.8727Z" fill="#1F72BC"/>
</g>
<path d="M52.331 21.9621C51.792 21.9621 51.3715 22.1838 51.0695 22.6273C50.7675 23.0669 50.6165 23.6747 50.6165 24.4507C50.6165 26.0639 51.2301 26.8705 52.4572 26.8705C52.828 26.8705 53.1873 26.8189 53.5352 26.7157C53.8831 26.6125 54.2328 26.4883 54.5845 26.343V28.2582C53.885 28.5678 53.0937 28.7227 52.2106 28.7227C50.9453 28.7227 49.9743 28.3557 49.2977 27.6217C48.6249 26.8877 48.2885 25.8269 48.2885 24.4393C48.2885 23.5715 48.4509 22.8088 48.7759 22.1513C49.1046 21.4938 49.5748 20.9892 50.1865 20.6375C50.8019 20.282 51.5244 20.1042 52.354 20.1042C53.26 20.1042 54.1258 20.3011 54.9515 20.6949L54.2577 22.4782C53.9481 22.3329 53.6384 22.2106 53.3288 22.1112C53.0191 22.0118 52.6865 21.9621 52.331 21.9621Z" fill="#1F72BC"/>
<path d="M58.4895 25.5574V28.608H56.2245V20.2247H58.9712C61.2495 20.2247 62.3887 21.0504 62.3887 22.7018C62.3887 23.6728 61.9147 24.424 60.9666 24.9553L63.4094 28.608H60.8405L59.0629 25.5574H58.4895ZM58.4895 23.8544H58.9138C59.7051 23.8544 60.1008 23.5046 60.1008 22.805C60.1008 22.2278 59.7128 21.9392 58.9368 21.9392H58.4895V23.8544Z" fill="#1F72BC"/>
<path d="M67.1653 23.3326L68.6103 20.2247H71.0645L68.3063 25.3338V28.608H66.0242V25.4026L63.266 20.2247H65.7317L67.1653 23.3326Z" fill="#1F72BC"/>
<path d="M78.0544 22.891C78.0544 23.8276 77.7772 24.552 77.2229 25.0643C76.6725 25.5727 75.8888 25.8269 74.8719 25.8269H74.2354V28.608H71.9705V20.2247H74.8719C75.9308 20.2247 76.726 20.4559 77.2573 20.9185C77.7887 21.381 78.0544 22.0386 78.0544 22.891ZM74.2354 23.9805H74.6483C74.9885 23.9805 75.258 23.885 75.4568 23.6938C75.6594 23.5027 75.7607 23.2389 75.7607 22.9025C75.7607 22.3367 75.4473 22.0539 74.8203 22.0539H74.2354V23.9805Z" fill="#1F72BC"/>
<path d="M83.089 28.608H80.824V22.0768H78.7769V20.2247H85.1303V22.0768H83.089V28.608Z" fill="#1F72BC"/>
<path d="M94.1731 24.4048C94.1731 25.8154 93.8271 26.8877 93.1352 27.6217C92.4433 28.3557 91.4302 28.7227 90.0961 28.7227C88.7811 28.7227 87.7719 28.3538 87.0685 27.616C86.3689 26.8782 86.0191 25.804 86.0191 24.3934C86.0191 22.9981 86.367 21.9334 87.0627 21.1995C87.7623 20.4617 88.7772 20.0928 90.1076 20.0928C91.4417 20.0928 92.4528 20.4578 93.1409 21.188C93.829 21.9181 94.1731 22.9904 94.1731 24.4048ZM88.4045 24.4048C88.4045 26.0257 88.9684 26.8361 90.0961 26.8361C90.6695 26.8361 91.0938 26.6393 91.3691 26.2455C91.6481 25.8518 91.7877 25.2382 91.7877 24.4048C91.7877 23.5677 91.6462 22.9503 91.3633 22.5527C91.0843 22.1513 90.6657 21.9506 90.1076 21.9506C88.9722 21.9506 88.4045 22.7687 88.4045 24.4048Z" fill="#1F72BC"/>
<path d="M99.3395 28.608L97.625 22.5699H97.5734C97.6537 23.5982 97.6938 24.3972 97.6938 24.9668V28.608H95.6869V20.2247H98.703L100.452 26.1767H100.498L102.212 20.2247H105.234V28.608H103.153V24.9324C103.153 24.7413 103.155 24.5291 103.158 24.2959C103.166 24.0627 103.193 23.4912 103.239 22.5814H103.187L101.496 28.608H99.3395Z" fill="#1F72BC"/>
<path d="M114.885 24.4048C114.885 25.8154 114.539 26.8877 113.847 27.6217C113.155 28.3557 112.142 28.7227 110.808 28.7227C109.493 28.7227 108.484 28.3538 107.78 27.616C107.081 26.8782 106.731 25.804 106.731 24.3934C106.731 22.9981 107.079 21.9334 107.774 21.1995C108.474 20.4617 109.489 20.0928 110.819 20.0928C112.153 20.0928 113.165 20.4578 113.853 21.188C114.541 21.9181 114.885 22.9904 114.885 24.4048ZM109.116 24.4048C109.116 26.0257 109.68 26.8361 110.808 26.8361C111.381 26.8361 111.806 26.6393 112.081 26.2455C112.36 25.8518 112.499 25.2382 112.499 24.4048C112.499 23.5677 112.358 22.9503 112.075 22.5527C111.796 22.1513 111.377 21.9506 110.819 21.9506C109.684 21.9506 109.116 22.7687 109.116 24.4048Z" fill="#1F72BC"/>
<path d="M123.515 24.2386C123.515 25.6377 123.129 26.7157 122.356 27.4726C121.588 28.2295 120.506 28.608 119.111 28.608H116.399V20.2247H119.3C120.646 20.2247 121.684 20.5687 122.414 21.2568C123.148 21.9449 123.515 22.9388 123.515 24.2386ZM121.164 24.3188C121.164 23.5505 121.011 22.9809 120.705 22.6101C120.403 22.2393 119.942 22.0539 119.323 22.0539H118.664V26.7501H119.168C119.856 26.7501 120.361 26.5513 120.682 26.1538C121.003 25.7524 121.164 25.1407 121.164 24.3188Z" fill="#1F72BC"/>
<path d="M130 28.608H125.023V20.2247H130V22.0424H127.288V23.3612H129.799V25.179H127.288V26.7616H130V28.608Z" fill="#1F72BC"/>
<defs>
<clipPath id="clip0_24_1959">
<rect width="41.7435" height="48.4225" fill="white"/>
</clipPath>
</defs>
</svg>
