<svg width="134" height="33" viewBox="0 0 134 33" fill="none" xmlns="http://www.w3.org/2000/svg">
<path d="M45.9762 13.508C45.8276 11.5517 44.2181 8.81543 40.2437 8.81543C36.8264 8.81543 34.1396 11.1803 34.1396 15.8233C34.1396 20.4044 36.6778 22.794 40.2065 22.794C43.5371 22.794 45.4191 20.7758 45.9762 17.891H43.2028C42.8685 19.5253 41.8037 20.392 40.2684 20.392C37.916 20.392 36.975 18.25 36.975 15.8604C36.975 12.1089 38.9312 11.2174 40.2684 11.2174C42.559 11.2174 42.9799 12.7156 43.2028 13.508H45.9762ZM88.5061 17.5195C88.5061 13.9661 86.1165 12.3441 83.4793 12.3441C80.8421 12.3441 78.4525 13.9661 78.4525 17.5195C78.4525 21.073 80.8421 22.6949 83.4793 22.6949C86.1289 22.6949 88.5061 21.0606 88.5061 17.5195ZM85.8442 17.5195C85.8442 18.77 85.4727 20.5158 83.4793 20.5158C81.4859 20.5158 81.1145 18.7824 81.1145 17.5195C81.1145 16.2566 81.4859 14.5232 83.4793 14.5232C85.4851 14.5232 85.8442 16.2566 85.8442 17.5195ZM76.6448 9.92975H74.0571V12.5917H72.7323V14.4366H74.0571V20.4044C74.0571 21.6796 74.4657 22.534 76.6943 22.534H77.0286C77.4372 22.534 77.8458 22.5216 78.2544 22.4968V20.5406C78.0687 20.5529 77.8829 20.5777 77.722 20.5777C76.6696 20.5777 76.6448 20.3548 76.6448 19.7853V14.4366H78.2544V12.5917H76.6448V9.92975V9.92975ZM46.7315 22.4349H49.3192V17.309C49.3192 16.2195 49.6906 14.9566 51.7088 14.9566C51.944 14.9566 52.2288 14.9566 52.4517 14.9937V12.3689C52.2907 12.3565 52.1174 12.3317 51.9564 12.3317C50.384 12.3317 49.7897 13.2975 49.2573 14.288H49.2201V12.5917H46.7439V22.4349H46.7315Z" fill="#4BA565"/>
<path d="M62.5923 12.604H59.856L57.8379 19.8471H57.8007L55.6959 12.604H52.811L56.4388 22.8434C56.1911 24.1929 55.6835 24.3291 54.7425 24.3291C54.5197 24.3291 54.3587 24.3044 54.2473 24.292V26.3597C54.6187 26.3721 55.0644 26.3968 55.4111 26.3968C57.6645 26.3968 57.9988 25.9139 59.2246 22.2738L62.5923 12.604Z" fill="#4BA565"/>
<path d="M65.5886 17.7425C65.5886 16.1701 66.0095 14.5853 67.7925 14.5853C69.4392 14.5853 69.9963 16.0463 69.9963 17.5939C69.9963 18.7578 69.5382 20.5655 67.8667 20.5655C66.2076 20.5655 65.5886 19.1911 65.5886 17.7425ZM65.5886 12.6042H63.1123V26.2856H65.6876V21.1845H65.7248C66.0343 21.7169 66.6905 22.695 68.4982 22.695C71.4202 22.695 72.6336 20.1073 72.6336 17.4082C72.6336 14.0033 70.7144 12.3442 68.5477 12.3442C66.8143 12.3442 66.0838 13.2481 65.601 14.0281H65.5638V12.6042H65.5886Z" fill="#4BA565"/>
<path d="M2.46851 20.9742C5.21716 26.6944 9.82302 30.2974 14.0698 32.5508C14.0822 32.5631 14.4413 32.7489 14.4413 32.7489C14.4413 32.7489 14.8003 32.5631 14.8127 32.5508C22.0063 28.7621 30.2151 21.0609 28.7046 5.86896L25.535 4.49463C24.9406 9.19954 22.0434 13.1616 18.0071 16.034C17.4623 16.4179 16.8928 16.7893 16.2985 17.136L16.868 21.4199C16.9423 21.9895 16.3975 22.4723 15.828 22.4723H12.9431C12.3736 22.4723 11.8164 21.9895 11.9031 21.4199L12.2002 19.117C9.42682 20.1818 6.44292 20.8132 3.48378 20.9618C3.1371 20.9618 2.8028 20.9742 2.46851 20.9742Z" fill="#4BA565"/>
<path d="M0.177863 5.86852C-0.366917 11.4277 0.375964 15.9841 1.91125 19.7232C2.41889 19.7356 2.91414 19.7232 3.42178 19.6985C6.47997 19.5499 9.56292 18.8442 12.3983 17.6803L12.6335 15.8726C11.742 15.2783 11.1477 14.2631 11.1477 13.1116C11.1477 11.2915 12.6335 9.80579 14.4536 9.80579C16.2736 9.80579 17.7594 11.2915 17.7594 13.1116C17.7594 13.8916 17.487 14.6221 17.0165 15.1917C17.1032 15.1298 17.1898 15.0679 17.2765 15.006C20.9909 12.3687 23.6653 8.75337 24.272 4.51895C20.7928 5.43517 17.6232 4.23419 15.6669 1.64648H14.5155H14.404H13.2526C11.1477 4.43229 7.64382 5.60851 3.86751 4.28371L0.177863 5.86852Z" fill="#333461"/>
<path d="M27.0084 0C27.2188 0 27.4169 0.0866717 27.5531 0.222866C27.6893 0.359061 27.776 0.557162 27.776 0.767645C27.776 0.978128 27.6893 1.17623 27.5531 1.31242C27.4169 1.44862 27.2188 1.53529 27.0084 1.53529C26.7979 1.53529 26.5998 1.44862 26.4636 1.31242C26.3274 1.17623 26.2407 0.978128 26.2407 0.767645C26.2407 0.557162 26.3274 0.359061 26.4636 0.222866C26.5998 0.099053 26.7979 0 27.0084 0ZM26.7236 1.2629V0.260009H27.0827C27.1569 0.260009 27.2065 0.272392 27.256 0.284773C27.2931 0.297155 27.3179 0.334296 27.3427 0.37144C27.3674 0.420966 27.3798 0.470493 27.3798 0.520018C27.3798 0.594306 27.355 0.656213 27.3179 0.705738C27.2807 0.755264 27.2188 0.780024 27.1446 0.792405C27.1817 0.804787 27.2065 0.829552 27.2188 0.841934C27.256 0.879078 27.2808 0.928603 27.3055 0.965747L27.4541 1.25052C27.4665 1.23814 27.4789 1.23813 27.4912 1.22575C27.615 1.10194 27.6893 0.940983 27.6893 0.755263C27.6893 0.569543 27.615 0.408587 27.4912 0.284773C27.3674 0.16096 27.2065 0.0866709 27.0207 0.0866709C26.835 0.0866709 26.6741 0.16096 26.5503 0.284773C26.4264 0.408587 26.3522 0.569543 26.3522 0.755263C26.3522 0.940983 26.4264 1.10194 26.5503 1.22575C26.6741 1.34957 26.835 1.42385 27.0207 1.42385C27.1446 1.42385 27.256 1.38671 27.355 1.33719L27.2065 1.04003C27.1693 0.953363 27.1322 0.903839 27.1074 0.879076C27.0827 0.854314 27.0703 0.829551 27.0455 0.81717C27.0207 0.804788 26.996 0.804787 26.9588 0.804787H26.835V1.25052H26.7236V1.2629ZM26.8226 0.705738H27.0579C27.1074 0.705738 27.1446 0.693356 27.1693 0.693356C27.1941 0.680975 27.2188 0.656212 27.2312 0.631449C27.2436 0.606687 27.256 0.569541 27.256 0.544778C27.256 0.495253 27.2436 0.45811 27.2065 0.433347C27.1817 0.396203 27.1322 0.383822 27.0827 0.383822H26.8226V0.705738Z" fill="#333461"/>
<path d="M89.7075 22.4349H95.4525C99.8355 22.4349 100.962 18.3367 100.962 15.4766C100.962 12.9631 100.034 9.14969 95.5639 9.14969H89.7075V22.4349ZM128.597 12.6041H125.861L123.843 19.8472H123.806L121.701 12.6041H118.816L122.444 22.8435C122.209 24.193 121.689 24.3292 120.748 24.3292C120.525 24.3292 120.364 24.3045 120.24 24.2921V26.3598C120.611 26.3721 121.057 26.3969 121.404 26.3969C123.657 26.3969 123.991 25.914 125.217 22.2739L128.597 12.6041ZM117.949 9.16207H115.362V22.4349H117.949V9.16207ZM111.214 12.6041V22.4349H113.802V12.6041H111.214V12.6041ZM113.802 9.02588H111.214V11.4279H113.802V9.02588ZM109.827 15.1794C109.827 12.7527 107.289 12.3317 105.902 12.3317C103.884 12.3317 101.804 12.7527 101.507 15.7737H104.008C104.082 15.2042 104.305 14.3994 105.593 14.3994C106.261 14.3994 107.289 14.4613 107.289 15.5385C107.289 16.0956 106.794 16.2566 106.385 16.3185L104.058 16.6652C102.411 16.9004 101.197 17.8909 101.197 19.81C101.197 21.8406 102.708 22.6825 104.194 22.6825C105.952 22.6825 106.781 21.8653 107.376 21.2587C107.438 21.8158 107.475 21.9644 107.623 22.4225H110.409V22.0511C110.1 21.9396 109.84 21.6796 109.84 20.5158V15.1794H109.827ZM107.289 18.9062C107.289 20.1072 106.125 20.8501 104.974 20.8501C104.478 20.8501 103.773 20.5777 103.773 19.6615C103.773 18.5843 104.565 18.349 105.531 18.1881C106.596 18.0147 107.029 17.8538 107.289 17.6557V18.9062ZM92.419 11.4526H95.081C96.2696 11.4526 98.1268 11.7745 98.1268 15.687C98.1268 17.8662 97.3716 20.1443 95.1182 20.1443H92.419V11.4526Z" fill="#333461"/>
<path d="M130.207 7.93651V9.01369C130.207 9.03845 130.194 9.06321 130.182 9.08797C130.169 9.11273 130.145 9.11273 130.12 9.11273H129.947C129.922 9.11273 129.897 9.10035 129.872 9.08797C129.848 9.07559 129.848 9.05083 129.848 9.01369V6.25264C129.848 6.22788 129.86 6.20312 129.872 6.17835C129.885 6.15359 129.909 6.15359 129.947 6.15359H130.937C131.209 6.15359 131.445 6.22788 131.618 6.37646C131.767 6.52503 131.866 6.73552 131.866 7.00791V7.06981C131.866 7.26791 131.816 7.44125 131.692 7.58983C131.593 7.71364 131.445 7.81269 131.259 7.8746L131.829 8.96416C131.841 8.97654 131.841 8.98892 131.853 9.0013C131.853 9.01368 131.853 9.02606 131.853 9.03845C131.853 9.06321 131.841 9.07559 131.829 9.08797C131.816 9.10035 131.791 9.11273 131.779 9.11273H131.544C131.519 9.11273 131.494 9.10035 131.482 9.08797C131.47 9.07559 131.457 9.06321 131.445 9.03845L130.875 7.93651H130.207V7.93651ZM130.751 5.16309C131.445 5.16309 132.076 5.44786 132.534 5.90597C132.992 6.36408 133.277 6.99552 133.277 7.68888C133.277 8.38224 132.992 9.01368 132.534 9.47179C132.076 9.9299 131.445 10.2147 130.751 10.2147C130.058 10.2147 129.427 9.9299 128.968 9.47179C128.51 9.01368 128.226 8.38224 128.226 7.68888C128.226 6.99552 128.51 6.36408 128.968 5.90597C129.414 5.44786 130.058 5.16309 130.751 5.16309ZM132.287 6.14121C131.89 5.74501 131.346 5.49738 130.739 5.49738C130.132 5.49738 129.588 5.74501 129.191 6.14121C128.795 6.53741 128.547 7.08219 128.547 7.68888C128.547 8.29557 128.795 8.84034 129.191 9.23655C129.588 9.63275 130.132 9.88038 130.739 9.88038C131.346 9.88038 131.89 9.63275 132.287 9.23655C132.683 8.84034 132.93 8.29557 132.93 7.68888C132.93 7.08219 132.683 6.53741 132.287 6.14121ZM130.207 6.51265V7.58983H130.912C131.073 7.58983 131.222 7.5403 131.333 7.45363C131.42 7.36697 131.482 7.25553 131.482 7.09458V7.02029C131.482 6.84695 131.42 6.72313 131.333 6.63647C131.222 6.53741 131.073 6.50027 130.912 6.50027H130.207V6.51265Z" fill="#333461"/>
</svg>
