<svg width="98" height="24" viewBox="0 0 98 24" fill="none" xmlns="http://www.w3.org/2000/svg">
<path d="M93.9758 23.6293H90.3123V3.30002H86.6536V0.398926H97.6322V3.30002H93.9758V23.6293Z" fill="#E38506"/>
<path d="M77.66 10.078H82.2346V12.9863H77.6624L77.66 20.7402L84.9799 20.7378V23.6293H74.0037V0.398926H84.9799V3.30002H77.66V10.078Z" fill="#E38506"/>
<path d="M64.8761 10.078H69.4531V12.9863H64.8785L64.8761 20.7402L72.1983 20.7378V23.6293H61.2197V0.398926H72.1983V3.30002H64.8761V10.078Z" fill="#E38506"/>
<path d="M48.2871 0.398926H55.2041C57.9014 0.398926 59.2513 1.7248 59.2513 4.37894V10.1068C59.2513 12.1328 58.5512 13.4179 57.1534 13.955L59.6181 23.6293H56.2687L53.9502 14.2451H51.9458V23.6245L48.2847 23.6269L48.2871 0.398926ZM51.9482 11.5933H54.1372C55.1922 11.5933 55.6165 11.0539 55.6165 9.93418L55.6141 4.85367C55.6141 3.73399 55.2065 3.29762 54.1516 3.29762H51.9458V11.5933H51.9482Z" fill="#E38506"/>
<path d="M43.0818 23.6293H39.4183V3.29762H35.762V0.398926H46.7382V3.29762H43.0818V23.6293Z" fill="#E38506"/>
<path d="M31.0339 6.20338L31.0459 4.60418C31.0531 3.67631 30.5688 3.2879 29.5162 3.27831L28.9528 3.27351C27.9266 3.26392 27.4327 3.71707 27.4255 4.64494L27.3968 8.34683C27.392 8.7784 27.4615 9.14763 27.6605 9.29868C27.8571 9.45213 28.1832 9.65113 28.6315 9.89089L32.0361 11.5093C32.7842 11.8833 33.314 12.1734 33.6257 12.382C33.9374 12.5906 34.1796 12.8399 34.3522 13.1324C34.5248 13.4249 34.6087 13.9812 34.6016 14.8036L34.5632 19.757C34.5416 22.3704 33.0791 23.6627 30.1756 23.6363L27.9578 23.6171C25.0783 23.5908 23.6493 22.1546 23.6709 19.3039L23.6757 17.7646L27.2985 17.7982L27.3057 19.3902C27.2985 20.2989 27.8115 20.7161 28.8905 20.7256L29.5186 20.7304C30.4705 20.74 30.9188 20.3732 30.926 19.4669L30.9572 15.5061C30.962 15.0745 30.8973 14.794 30.6959 14.6405C30.4969 14.4871 30.1732 14.2905 29.7224 14.0483L26.3178 12.3676C25.5674 12.0152 25.0255 11.7179 24.6899 11.4781C24.3542 11.2359 24.1121 10.9267 23.9658 10.5478C23.8195 10.1714 23.7476 9.6775 23.7524 9.07331L23.7908 4.31407C23.8124 1.65753 25.2629 0.343645 28.1424 0.370018L30.3962 0.391596C33.2781 0.41797 34.707 1.75823 34.6855 4.41477L34.6711 6.24414L31.0339 6.20338Z" fill="#E38506"/>
<path d="M17.1039 14.6549L14.795 23.4229H11.635L14.8669 11.7634L11.6326 0.362793H14.9676L17.1039 8.87427H17.1758L19.3073 0.362793H22.4673L19.4128 11.7634L22.3978 23.4229H19.0939L17.1758 14.6549H17.1039Z" fill="black"/>
<path d="M10.5608 3.23991H3.97225V9.96998H8.48453L8.48213 12.907H3.97225V23.4253H0.368652V0.362793H9.76245L10.5608 3.23991Z" fill="black"/>
</svg>
