<svg width="117" height="23" viewBox="0 0 117 23" fill="none" xmlns="http://www.w3.org/2000/svg">
<g clip-path="url(#clip0_24_1990)">
<path d="M42.3944 0.54004H36.6561V22.4209H42.3953V0.54004H42.3944ZM34.3522 8.76024H27.4814V0.54004H21.7831V22.4213H27.4814V14.2398H34.3522V8.76024ZM107.704 0.54004H101.966V22.4209H107.704V0.54004ZM116.859 22.4186V16.9395H109.989V22.4195H116.859V22.4186ZM59.005 0C52.3769 0 46.9612 5.13268 46.9612 11.5C46.9612 17.8287 52.3365 23 59.005 23C65.6331 23 71.0483 17.8673 71.0483 11.5C71.0078 5.13268 65.6331 0 59.005 0ZM59.005 17.52C55.5292 17.52 52.7005 14.8189 52.7005 11.5C52.7005 8.1811 55.5292 5.47998 59.005 5.47998C62.4803 5.47998 65.3095 8.1811 65.3095 11.5C65.3095 14.8189 62.4803 17.52 59.005 17.52ZM14.9128 0.54004H9.17407V22.4209H14.9133V0.54004H14.9128Z" fill="black"/>
<path d="M3.45944 7.14705C3.91366 7.14723 4.36346 7.06193 4.78317 6.89602C5.20288 6.7301 5.58426 6.48683 5.90555 6.18009C6.22684 5.87335 6.48174 5.50914 6.6557 5.10828C6.82965 4.70741 6.91924 4.27774 6.91937 3.84379C6.91924 3.40984 6.82965 2.98016 6.6557 2.5793C6.48174 2.17843 6.22684 1.81423 5.90555 1.50749C5.58426 1.20074 5.20288 0.957471 4.78317 0.791559C4.36346 0.625647 3.91366 0.540346 3.45944 0.540528C2.54228 0.540284 1.66257 0.888104 1.01382 1.50749C0.365059 2.12687 0.00038302 2.96708 0 3.84333C6.32171e-05 4.27728 0.089598 4.70697 0.263492 5.10785C0.437385 5.50874 0.692231 5.87298 1.01348 6.17976C1.33472 6.48655 1.71607 6.72987 2.13576 6.89584C2.55544 7.06181 3.00523 7.14717 3.45944 7.14705V7.14705Z" fill="#3C98F9"/>
<path d="M85.9209 0.540039H75.6152V14.7803H81.354V6.02002H85.9209C89.0731 6.02002 91.6596 8.45112 91.6596 11.5C91.6596 14.5098 89.1136 16.98 85.9209 16.98H81.354V22.4595H85.9209C92.2658 22.4595 97.358 17.5587 97.358 11.5386C97.358 5.51816 92.2658 0.540039 85.9209 0.540039V0.540039Z" fill="black"/>
</g>
<defs>
<clipPath id="clip0_24_1990">
<rect width="117" height="23" fill="white"/>
</clipPath>
</defs>
</svg>
