<svg width="145" height="30" viewBox="0 0 145 30" fill="none" xmlns="http://www.w3.org/2000/svg">
<path d="M95.0225 27.158C92.8634 27.158 91.2787 26.7436 90.2288 25.9146C89.7917 25.5811 89.4387 25.1504 89.1979 24.657C88.9572 24.1636 88.8354 23.6211 88.8422 23.0725H93.1407C93.3388 23.9014 93.6953 24.3751 95.082 24.3751C96.6072 24.3751 97.2411 23.5462 97.2411 21.6712V20.0133H97.1619C96.8966 20.6803 96.4207 21.2432 95.8061 21.6171C95.1915 21.9909 94.4715 22.1554 93.7548 22.0857C90.209 22.0857 88.4064 20.0725 88.4064 16.1449C88.3267 14.4752 88.9022 12.8401 90.0109 11.5857C90.5059 11.0759 91.1006 10.6728 91.7581 10.4012C92.4157 10.1296 93.1223 9.99536 93.834 10.0067C94.5136 9.93895 95.198 10.0734 95.8009 10.3931C96.4038 10.7128 96.8981 11.2033 97.2213 11.8028H97.3005V10.283H101.54V21.2764C101.54 23.2896 101.044 24.7304 100.014 25.6383C98.905 26.6646 97.3005 27.158 95.0225 27.158ZM95.1612 12.987C93.7746 12.987 92.9426 14.1712 92.9426 16.1646C92.9426 18.237 93.6953 19.3422 95.082 19.3422C95.3643 19.3412 95.6436 19.2847 95.904 19.176C96.1644 19.0673 96.4007 18.9084 96.5994 18.7086C96.7981 18.5088 96.9553 18.2719 97.062 18.0115C97.1687 17.751 97.2229 17.4722 97.2213 17.1909V17.1909V15.612C97.2213 13.9541 96.4686 12.987 95.1612 12.987V12.987ZM54.6523 22.9935C53.1344 23.1299 51.6159 22.7394 50.3538 21.8883C49.9416 21.5328 49.6061 21.0976 49.3677 20.609C49.1294 20.1205 48.9931 19.5888 48.9672 19.0462H52.9289C53.0082 19.8751 53.5628 20.2896 54.5929 20.2896C55.5635 20.2896 56.1776 19.9343 56.1776 19.2633C56.1776 18.7107 55.821 18.4343 54.9296 18.2962L52.9091 18.0199C50.4925 17.7436 49.1653 16.362 49.1653 14.2107C49.1559 13.6667 49.2623 13.1269 49.4774 12.6268C49.6925 12.1267 50.0114 11.6777 50.4132 11.3093C51.5884 10.4987 52.9759 10.048 54.4048 10.013C55.8337 9.97791 57.2418 10.3599 58.4556 11.112C58.864 11.4484 59.193 11.8705 59.4189 12.3481C59.6449 12.8257 59.7624 13.3471 59.763 13.8751H55.8606C55.8518 13.5378 55.7094 13.2177 55.4644 12.9847C55.2194 12.7517 54.8918 12.6248 54.5533 12.6317H54.474C53.3647 12.6317 53.1468 13.1251 53.1468 13.5988C53.1468 14.0725 53.3449 14.4278 54.3354 14.5659L56.4945 14.8422C57.4441 14.8871 58.351 15.2486 59.0697 15.8686C59.4111 16.1986 59.6751 16.5998 59.8429 17.0433C60.0107 17.4869 60.0781 17.9618 60.0403 18.4343C60.2186 21.2764 58.0594 23.0133 54.6523 22.9935ZM42.1728 22.9343C38.1516 22.9343 35.8538 20.5857 35.8538 16.362C35.7953 14.6612 36.3905 13.0023 37.5177 11.7238C38.1297 11.1276 38.8598 10.6652 39.6614 10.3661C40.4629 10.0671 41.3183 9.93794 42.1728 9.98697C44.332 9.98697 45.9959 10.5988 47.0259 11.783C48.0729 13.1214 48.6129 14.7846 48.5512 16.4804V17.4475H40.291C40.4296 19.2436 40.9843 20.0725 42.3115 20.0725C42.6992 20.1374 43.0972 20.0505 43.4221 19.8298C43.747 19.609 43.9737 19.2717 44.0546 18.8883H48.4324C48.1352 21.4738 45.9761 22.9343 42.1728 22.9343V22.9343ZM42.1728 12.6317C40.9843 12.6317 40.4296 13.4607 40.291 15.1185H44.0348V14.9804C43.8962 13.4014 43.2821 12.6317 42.1728 12.6317V12.6317ZM121.725 22.8751C121.06 22.9117 120.395 22.8074 119.774 22.5693C119.152 22.3311 118.588 21.9645 118.12 21.4936C117.205 20.4394 116.73 19.0764 116.792 17.6843C116.754 17.0059 116.852 16.3267 117.08 15.6863C117.307 15.0458 117.661 14.457 118.12 13.9541C118.598 13.4958 119.163 13.1375 119.782 12.9002C120.401 12.6629 121.062 12.5515 121.725 12.5725C124.775 12.5725 126.657 14.5067 126.657 17.6843C126.657 20.862 124.696 22.8751 121.725 22.8751ZM121.725 14.5857C120.12 14.5857 119.783 16.3225 119.783 17.7633C119.783 19.9146 120.477 20.9409 121.725 20.9409C122.973 20.9409 123.666 19.8357 123.666 17.7633C123.666 15.6909 122.973 14.5857 121.725 14.5857ZM111.801 22.8751C111.136 22.9117 110.471 22.8074 109.849 22.5693C109.228 22.3311 108.664 21.9645 108.195 21.4936C107.319 20.4531 106.873 19.1195 106.947 17.7633C106.947 14.5857 108.829 12.6514 111.88 12.6514C114.653 12.6514 116.317 14.033 116.396 16.3817H113.564C113.504 15.5528 113.148 14.5857 111.9 14.5857C110.156 14.5857 109.958 16.5791 109.958 17.7633C109.958 19.9146 110.592 20.9409 111.9 20.9409C112.356 20.9426 112.794 20.7655 113.12 20.4479C113.446 20.1304 113.634 19.6978 113.643 19.2435V19.2041V19.0067H116.416C116.417 19.5598 116.299 20.1068 116.07 20.6107C115.841 21.1146 115.507 21.5637 115.089 21.9278C114.111 22.5609 112.967 22.8906 111.801 22.8751ZM65.1906 22.7962C64.116 22.8944 63.0447 22.5763 62.1994 21.908C61.7863 21.4765 61.4674 20.9643 61.2628 20.4038C61.0582 19.8433 60.9725 19.2466 61.0109 18.6514V6.90802H65.3292V10.3028H67.9044V13.3422H65.4085V17.8422C65.4085 19.1449 65.8244 19.6383 67.013 19.6383C67.2926 19.6512 67.5727 19.6246 67.8449 19.5593V22.658C66.9337 22.7172 66.1018 22.7962 65.1906 22.7962V22.7962ZM136.839 22.5988H133.927V16.8554C133.986 16.3136 133.889 15.7662 133.65 15.2764C133.518 15.0736 133.33 14.9134 133.108 14.8153C132.886 14.7172 132.641 14.6854 132.402 14.7238C131.213 14.7238 130.52 15.5528 130.52 16.9343V22.5988H127.608V12.8488H130.381V14.4475C130.66 13.8859 131.097 13.4171 131.639 13.0983C132.18 12.7794 132.803 12.6242 133.432 12.6514C135.096 12.6514 136.066 13.3422 136.482 14.6646H136.542C136.811 14.05 137.258 13.5297 137.826 13.1708C138.395 12.812 139.058 12.6311 139.731 12.6514C141.949 12.6514 142.999 13.8357 142.999 16.2436V22.5988H140.087V16.8751C140.146 16.3333 140.05 15.786 139.81 15.2962C139.678 15.0934 139.49 14.9332 139.269 14.835C139.047 14.7369 138.802 14.7051 138.562 14.7435C137.374 14.7435 136.68 15.5725 136.68 16.9541L136.839 22.5988V22.5988ZM79.2746 22.5988H74.8374V10.3028H79.1359V12.2962H79.2151C79.595 11.5763 80.1784 10.9832 80.8931 10.5903C81.6079 10.1974 82.4225 10.0219 83.2363 10.0857C84.821 10.0857 85.9501 10.5001 86.6434 11.3291C87.3557 12.3846 87.6714 13.6566 87.5348 14.9212V22.5988H83.0977V15.612C83.1586 14.9914 83.0346 14.3667 82.7411 13.8159C82.584 13.6019 82.3732 13.4327 82.1299 13.3253C81.8865 13.2179 81.6192 13.1761 81.3545 13.2041C80.0471 13.2041 79.3538 14.033 79.3538 15.6909L79.2746 22.5988V22.5988ZM15.0348 22.5988H10.5977V10.3028H14.8962V12.2962H14.9556C15.3355 11.5763 15.9189 10.9832 16.6336 10.5903C17.3483 10.1974 18.163 10.0219 18.9768 10.0857C20.5615 10.0857 21.6906 10.5001 22.3839 11.3291C23.0934 12.3863 23.4152 13.655 23.2951 14.9212V22.5988H18.8579V15.612C18.9188 14.9914 18.7948 14.3667 18.5014 13.8159C18.3443 13.6019 18.1335 13.4327 17.8901 13.3253C17.6468 13.2179 17.3794 13.1761 17.1147 13.2041C15.7876 13.2041 15.0942 14.033 15.0942 15.6909L15.0348 22.5988V22.5988ZM106.056 22.5988H103.005V19.6975H106.056V22.5988V22.5988ZM73.3716 22.5988H68.9344V10.3028H73.3716V22.5988ZM32.0307 22.5988H27.4549L23.0772 10.3028H27.5341L29.1188 15.6317C29.5348 17.1514 29.8914 18.7501 29.8914 18.8093H29.9706C30.1885 17.7633 30.3866 16.737 30.6639 15.6909L32.2684 10.362H36.5669L32.0307 22.5988V22.5988ZM8.93373 22.5988H4.35791V5.19092H8.93373V22.5988V22.5988Z" fill="#060606"/>
<path d="M68.7957 8.98031L73.3715 8.15137V3.65137L68.7957 4.48031V8.98031Z" fill="#FF883D"/>
</svg>
