<svg width="149" height="16" viewBox="0 0 149 16" fill="none" xmlns="http://www.w3.org/2000/svg">
<path d="M9.47739 5.07651C9.01239 4.3842 7.84989 3.69189 6.45489 3.69189C4.67239 3.69189 3.81989 4.46113 3.81989 5.3842C3.81989 6.46113 5.13739 6.76882 6.68739 6.99959C9.32239 7.30728 11.8799 7.99959 11.8799 11.0765C11.8799 13.9227 9.32239 15.1534 6.53239 15.1534C3.89739 15.1534 1.88239 14.3842 0.952393 11.9996L2.96739 10.9996C3.50989 12.3842 4.98239 12.9996 6.53239 12.9996C8.08239 12.9996 9.47739 12.4611 9.47739 11.0765C9.47739 9.84574 8.23739 9.3842 6.53239 9.23036C3.89739 8.92266 1.49489 8.23036 1.49489 5.3842C1.49489 2.76882 4.12989 1.69189 6.45489 1.69189C8.46989 1.69189 10.4849 2.23036 11.4924 4.23036L9.47739 5.07651Z" fill="black"/>
<path d="M18.4674 9.53797H25.3649V7.3072H16.0649V14.7687H25.6749V12.3841H18.4674V9.53797ZM16.0649 1.99951V4.3072H25.6749V1.99951H16.0649V1.99951Z" fill="black"/>
<path d="M41.1749 13.1534C39.8574 14.4611 38.1524 15.0765 36.2924 15.0765C31.5649 15.0765 29.5499 11.8457 29.4724 8.53801C29.4724 5.23032 31.6424 1.8457 36.2924 1.8457C37.9974 1.8457 39.7024 2.46109 41.0199 3.76878L39.3924 5.30724C38.5399 4.46109 37.4549 4.07647 36.2924 4.07647C33.1924 4.07647 31.8749 6.38417 31.8749 8.46109C31.8749 10.538 33.1149 12.7688 36.2924 12.7688C37.3774 12.7688 38.6949 12.3072 39.5474 11.4611L41.1749 13.1534Z" fill="black"/>
<path d="M55.8999 2.07666V9.38435C55.8999 13.1536 53.5749 15.0767 50.3199 15.0767C47.2199 15.0767 44.6624 13.2305 44.6624 9.38435V2.07666H47.0649V9.38435C47.0649 11.692 48.3824 12.9228 50.3974 12.9228C52.4124 12.9228 53.4974 11.6151 53.4974 9.38435V2.07666H55.8999Z" fill="black"/>
<path d="M68.1449 10.2303C70.5474 9.76874 71.3999 7.99951 71.3999 6.23028C71.3999 3.99951 69.7724 1.99951 66.8274 1.99951C64.8124 1.99951 62.7974 1.99951 60.7049 1.99951V4.23028H66.7499C68.2999 4.23028 68.9199 5.23028 68.9199 6.23028C68.9199 7.23028 68.2224 8.23028 66.7499 8.23028H60.6274V14.6149H63.0299V10.3841H65.3549L69.0749 14.6149H71.9424V14.4611L68.1449 10.2303Z" fill="black"/>
<path d="M75.4299 14.7687V1.99951H77.8324V14.6918H75.4299V14.7687Z" fill="black"/>
<path d="M86.3575 4.23028H82.25V1.99951C85.97 1.99951 89.07 1.99951 92.79 1.99951V4.15336H88.76V14.6918H86.3575V4.23028Z" fill="black"/>
<path d="M96.6648 14.7687V1.99951H99.0673V14.6918H96.6648V14.7687Z" fill="black"/>
<path d="M106.042 9.53797H112.94V7.3072H103.64V14.7687H113.25V12.3841H106.042V9.53797ZM103.64 1.99951V4.3072H113.25V1.99951H103.64V1.99951Z" fill="black"/>
<path d="M125.805 5.07651C125.34 4.3842 124.177 3.69189 122.782 3.69189C121 3.69189 120.147 4.46113 120.147 5.3842C120.147 6.46113 121.465 6.76882 123.015 6.99959C125.65 7.30728 128.207 7.99959 128.207 11.0765C128.207 13.9227 125.65 15.1534 122.86 15.1534C120.225 15.1534 118.21 14.3842 117.28 11.9996L119.295 10.9996C119.837 12.3842 121.31 12.9996 122.86 12.9996C124.41 12.9996 125.805 12.4611 125.805 11.0765C125.805 9.84574 124.565 9.3842 122.86 9.23036C120.225 8.92266 117.822 8.23036 117.822 5.3842C117.822 2.76882 120.457 1.69189 122.782 1.69189C124.797 1.69189 126.812 2.23036 127.82 4.23036L125.805 5.07651Z" fill="black"/>
<path d="M134.33 13.6149C134.33 15.3072 131.695 15.3072 131.695 13.6149C131.695 11.9226 134.33 11.9226 134.33 13.6149Z" fill="black"/>
<path d="M142.932 3.0767C144.56 3.0767 145.955 4.38439 145.955 6.0767C145.955 7.769 144.637 9.0767 142.932 9.0767C141.305 9.0767 139.91 7.769 139.91 6.0767C139.91 4.38439 141.305 3.0767 142.932 3.0767ZM142.932 0.922852C140.065 0.922852 137.74 3.23054 137.74 6.0767C137.74 8.92285 140.065 11.2305 142.932 11.2305C145.8 11.2305 148.125 8.92285 148.125 6.0767C148.125 3.23054 145.8 0.922852 142.932 0.922852Z" fill="black"/>
<path d="M147.815 12.9229H138.127V15.0767H147.815V12.9229Z" fill="black"/>
</svg>
