<svg width="70" height="41" viewBox="0 0 70 41" fill="none" xmlns="http://www.w3.org/2000/svg">
<path d="M0 5.59104H5.56528V19.4424H8.93508V5.59104H14.5004V2.51855H0V5.59104Z" fill="#0B0E17"/>
<path d="M26.7543 16.3195H20.27V12.2901H25.8863V9.1672H20.27V5.59104H26.7543V2.51855H16.9001V19.4424H26.7543V16.3195Z" fill="#0B0E17"/>
<path d="M37.3231 16.6721C34.2596 16.6721 32.2173 14.2544 32.2173 10.9804C32.2173 7.70648 34.2596 5.33916 37.272 5.33916C39.5696 5.33916 40.846 6.34653 41.4587 8.00869H45.1349C44.2159 4.58363 41.663 2.21631 37.272 2.21631C32.2684 2.21631 28.6943 5.89321 28.6943 10.9804C28.6943 16.0677 32.2684 19.7949 37.272 19.7949C41.663 19.7949 44.2669 17.5283 45.1859 13.8514H41.6119C41.1013 15.4632 39.7228 16.6721 37.3231 16.6721Z" fill="#0B0E17"/>
<path d="M50.9555 12.2396H54.3764V12.2899H58.3078V19.4423H61.6776V12.2396H65.558C66.0175 12.7936 66.6812 13.1966 67.4982 13.1966C68.8767 13.1966 70 12.0381 70 10.6781C70 9.26781 68.8767 8.15971 67.4982 8.15971C66.6812 8.15971 66.0175 8.56265 65.558 9.11671H61.6776V0H58.3078V9.11671H54.3764H50.9555V2.51843H47.5857V19.4423H50.9555V12.2396V12.2396Z" fill="#0B0E17"/>
<path d="M0 26.8464H5.56528V40.6978H8.93508V26.8464H14.5004V23.7739H0V26.8464Z" fill="#0B0E17"/>
<path d="M18.9935 22.7666C17.8192 22.7666 16.8491 23.6732 16.8491 24.8317C16.8491 25.9902 17.7682 26.8968 18.9935 26.8968C20.1679 26.8968 21.138 26.0406 21.138 24.8317C21.0869 23.6732 20.1168 22.7666 18.9935 22.7666Z" fill="#0B0E17"/>
<path d="M20.5252 28.458H17.3596V40.6976H20.5252V28.458Z" fill="#0B0E17"/>
<path d="M33.3917 34.6535L33.0343 35.6609L32.6259 34.6535L27.7243 23.7739H23.895V40.6978H27.2138V29.9693L27.7243 31.4803L31.6047 40.6978H34.4639L38.3443 31.4803L38.8549 29.9693V40.6978H42.2247V23.7739H38.3443L33.3917 34.6535Z" fill="#0B0E17"/>
<path d="M45.6965 40.6978H55.5507V37.5749H49.0663V33.5454H54.6827V30.4226H49.0663V26.8464H55.5507V23.7739H45.6965V40.6978Z" fill="#0B0E17"/>
<path d="M64.3327 30.624C62.2393 29.9189 61.3203 29.4655 61.3203 28.2063C61.3203 27.0478 62.0351 26.3931 63.2605 26.3931C64.4348 26.3931 65.3028 27.1486 65.3538 28.5085H68.7747C68.6215 25.1338 66.5792 23.4717 63.3626 23.4717C59.9928 23.4717 57.9505 25.5872 57.9505 28.5085C57.9505 31.3292 59.7886 32.6891 62.852 33.6965C64.9964 34.4017 65.8644 35.0564 65.8644 36.1646C65.8644 37.2727 65.0475 38.0786 63.6179 38.0786C61.8819 38.0786 61.0139 37.1719 60.9118 35.5098H57.491C57.5931 38.7334 59.6354 40.9999 63.5158 40.9999C66.7324 40.9999 69.2342 39.1363 69.2342 35.8623C69.2853 33.3439 68.0088 31.8329 64.3327 30.624Z" fill="#0B0E17"/>
</svg>
